<svg id="Layer_1" enable-background="new 0 0 512.002 512.002" height="512" viewBox="0 0 512.002 512.002" width="512" xmlns="http://www.w3.org/2000/svg"><g><path d="m242.467 36.507c-29.635 12.938-54.11 35.391-71.12 68.495-9.294 18.087-15.095 37.764-17.655 57.938l-24.688 173.681c-4.003 19.381 8.92 40.508 29.296 40.381l-4.884 19h-93.415c-22.091 0-40-17.909-40-40s17.909-40 40-40h10.528l24.523-174.944c19.002-65.819 75.87-112.808 142.802-120.07 1.504 5.184 3.075 10.346 4.613 15.519zm95.534 89.495c0-48.487 32.555-89.37 77-101.984-9.217-2.616-18.945-4.016-29-4.016-58.542 0-106 47.458-106 106s47.458 106 106 106c10.055 0 19.783-1.4 29-4.016-44.445-12.614-77-53.497-77-101.984z" fill="#c6e1f2"/><path d="m316.001 313.002h-161c-11.046 0-20-8.954-20-20s8.954-20 20-20h161c11.046 0 20 8.954 20 20s-8.954 20-20 20zm196 43c0-30.717-23.206-56.118-53.005-59.595l-.148-1.096c-1.486-10.946-11.562-18.606-22.509-17.128-10.945 1.486-18.613 11.564-17.127 22.509l2.444 18c1.346 9.915 9.813 17.31 19.818 17.31h10.528c11.028 0 20 8.972 20 20s-8.972 20-20 20h-392c-11.028 0-20-8.972-20-20s8.972-20 20-20h10.528c9.973 0 18.422-7.347 19.806-17.224l21.532-153.607c5.801-41.38 28.616-78.044 62.596-100.589 21.703-14.399 44.968-22.691 69.148-24.645 11.01-.89 19.214-10.536 18.324-21.546s-10.532-19.221-21.546-18.324c-31.008 2.506-60.629 12.998-88.041 31.184-43.513 28.87-72.706 75.658-80.094 128.368l-19.174 136.78c-29.836 3.442-53.081 28.86-53.081 59.604 0 33.084 26.916 60 60 60h392c33.085-.001 60.001-26.917 60.001-60.001zm0-230c0-69.477-56.523-126-126-126s-126 56.523-126 126 56.523 126 126 126 126-56.523 126-126zm-40 0c0 47.42-38.58 86-86 86s-86-38.58-86-86 38.58-86 86-86 86 38.58 86 86z" fill="#0023c4"/><path d="m258.001 512.002c-30.13 0-55.439-22.669-58.871-52.731-1.253-10.974 6.628-20.887 17.603-22.14 10.969-1.255 20.886 6.628 22.14 17.603 1.124 9.845 9.348 17.269 19.129 17.269s18.005-7.424 19.129-17.269c1.253-10.975 11.163-18.851 22.14-17.603 10.975 1.253 18.855 11.166 17.603 22.14-3.434 30.062-28.743 52.731-58.873 52.731zm148-355v-62c0-11.046-8.954-20-20-20h-20c-11.046 0-20 8.954-20 20s8.954 20 20 20v42c0 11.046 8.954 20 20 20s20-8.954 20-20z" fill="#ff5cf4"/></g></svg>