<svg width="640" height="480" xmlns="http://www.w3.org/2000/svg">
 <!-- Created with Method Draw - http://github.com/duopixel/Method-Draw/ -->

 <g>
  <title>background</title>
  <rect fill="#fff" id="canvas_background" height="482" width="642" y="-1" x="-1"/>
  <g display="none" overflow="visible" y="0" x="0" height="100%" width="100%" id="canvasGrid">
   <rect fill="url(#gridpattern)" stroke-width="0" y="1" x="1" height="480" width="640"/>
  </g>
 </g>
 <g>
  <title>Layer 1</title>
  <g id="svg_121"/>
  <g stroke="null" id="svg_130">
   <path stroke="null" id="svg_129" d="m608.89997,-1l-577.79997,0c-17.72522,0 -32.1,15.5135 -32.1,34.64286l0,415.7143c0,19.12935 14.37478,34.64286 32.1,34.64286l577.79997,0c17.72522,0 32.1,-15.5135 32.1,-34.64286l0,-415.7143c0,-19.12935 -14.37478,-34.64286 -32.1,-34.64286zm-433.34998,320.31653l0,17.45134c0,4.78504 -3.59119,8.66071 -8.025,8.66071l-16.05,0c-4.43381,0 -8.025,-3.87567 -8.025,-8.66071l0,-17.63538c-11.32528,-0.6279 -22.33959,-4.8933 -31.46803,-12.28739c-3.91219,-3.17199 -4.11281,-9.49431 -0.57178,-13.14263l11.78672,-12.13583c2.77866,-2.85804 6.91153,-2.98795 10.16166,-0.79029c3.88209,2.61987 8.28581,4.02723 12.86006,4.02723l28.19784,0c6.52031,0 11.83687,-6.40893 11.83687,-14.27935c0,-6.44141 -3.62128,-12.11417 -8.79741,-13.78136l-45.14062,-14.61496c-18.64809,-6.04085 -31.67869,-25.35424 -31.67869,-46.97355c0,-26.54509 19.10953,-48.11027 42.80334,-48.7923l0,-17.45134c0,-4.78504 3.59119,-8.66071 8.025,-8.66071l16.05,0c4.43381,0 8.025,3.87567 8.025,8.66071l0,17.63538c11.32528,0.6279 22.33959,4.88248 31.46803,12.28739c3.91219,3.17199 4.11281,9.49431 0.57178,13.14263l-11.78672,12.13583c-2.77866,2.85804 -6.91153,2.98795 -10.16166,0.79029c-3.88209,-2.63069 -8.28581,-4.02723 -12.86006,-4.02723l-28.19784,0c-6.52031,0 -11.83687,6.40893 -11.83687,14.27935c0,6.44141 3.62128,12.11417 8.79741,13.78136l45.14062,14.61496c18.64809,6.04085 31.67869,25.35424 31.67869,46.97355c0,26.55592 -19.10953,48.11027 -42.80334,48.7923zm240.74999,-17.19152c0,4.78504 -3.59119,8.66071 -8.025,8.66071l-112.34999,0c-4.43381,0 -8.025,-3.87567 -8.025,-8.66071l0,-17.32143c0,-4.78504 3.59119,-8.66071 8.025,-8.66071l112.34999,0c4.43381,0 8.025,3.87567 8.025,8.66071l0,17.32143zm160.49999,0c0,4.78504 -3.59119,8.66071 -8.025,8.66071l-80.25,0c-4.43381,0 -8.025,-3.87567 -8.025,-8.66071l0,-17.32143c0,-4.78504 3.59119,-8.66071 8.025,-8.66071l80.25,0c4.43381,0 8.025,3.87567 8.025,8.66071l0,17.32143zm0,-103.92857c0,4.78504 -3.59119,8.66071 -8.025,8.66071l-272.84999,0c-4.43381,0 -8.025,-3.87567 -8.025,-8.66071l0,-17.32143c0,-4.78504 3.59119,-8.66071 8.025,-8.66071l272.84999,0c4.43381,0 8.025,3.87567 8.025,8.66071l0,17.32143z" fill="#faba6f"/>
  </g>
 </g>
</svg>