<svg width="640" height="480" xmlns="http://www.w3.org/2000/svg">
 <!-- Created with Method Draw - http://github.com/duopixel/Method-Draw/ -->

 <g>
  <title>background</title>
  <rect fill="#fff" id="canvas_background" height="482" width="642" y="-1" x="-1"/>
  <g display="none" overflow="visible" y="0" x="0" height="100%" width="100%" id="canvasGrid">
   <rect fill="url(#gridpattern)" stroke-width="0" y="1" x="1" height="480" width="640"/>
  </g>
 </g>
 <g>
  <title>Layer 1</title>
  <g id="svg_121"/>
  <g id="svg_241">
   <g transform="matrix(0.8639356490366622,0,0,0.8639356490366622,0,0) " id="svg_135">
    <g id="svg_136">
     <g id="svg_137">
      <path id="svg_138" fill="#AC5918" d="m368.89795,264.25696c-16.932,0.757 -33.739,11.889 -33.662,32.39l0.153,22.713c0.08,21.309 16.573,31.488 33.509,31.48l0,-86.583z"/>
      <path id="svg_139" fill="#774730" d="m368.89795,264.25696c16.938,0.629 33.434,11.635 33.511,32.136l0.152,22.712c0.081,21.31 -16.727,31.614 -33.663,31.735l0,-86.583z"/>
     </g>
    </g>
    <g id="svg_140">
     <path id="svg_141" fill="#D5742A" d="m368.89695,284.26896c-13.609,0.827 -24.428,14.013 -24.428,30.157c0,16.145 10.818,29.332 24.428,30.158l0,-60.315z"/>
     <path id="svg_142" fill="#AC5918" d="m368.89895,284.26896c13.609,0.827 24.428,14.013 24.428,30.157c0,16.145 -10.818,29.332 -24.428,30.158l0,-60.315z"/>
    </g>
    <g id="svg_143">
     <g id="svg_144">
      <path id="svg_145" fill="#E0874B" d="m333.86495,271.12696c-10.274,0.488 -18.316,8.263 -18.316,17.784c0,9.52 8.042,17.297 18.315,17.783l0,-35.567l0.001,0z"/>
      <path id="svg_146" fill="#D5742A" d="m333.86495,271.12696c10.272,0.488 18.564,8.263 18.564,17.784c0,9.52 -8.292,17.297 -18.564,17.783l0,-35.567z"/>
     </g>
     <g id="svg_147">
      <path id="svg_148" fill="#E0874B" d="m403.68395,271.12696c-10.273,0.487 -18.314,8.263 -18.314,17.783c0,9.52 8.041,17.297 18.314,17.783l0,-35.566z"/>
      <path id="svg_149" fill="#D5742A" d="m403.68395,271.12696c10.271,0.487 18.564,8.263 18.564,17.783c0,9.52 -8.293,17.297 -18.564,17.783l0,-35.566z"/>
     </g>
     <g id="svg_150">
      <g id="svg_151">
       <path id="svg_152" fill="#42403F" d="m343.55695,293.58596c0,5.285 -4.408,9.568 -9.692,9.568c-5.285,0 -9.443,-4.283 -9.443,-9.568c0,-5.284 4.158,-9.567 9.443,-9.567c5.284,0 9.692,4.283 9.692,9.567z"/>
       <path id="svg_153" fill="#42403F" d="m338.24295,278.34796c0,2.349 -2.029,4.252 -4.378,4.252c-2.349,0 -4.128,-1.903 -4.128,-4.252c0,-2.349 1.779,-4.253 4.128,-4.253c2.348,0 4.378,1.905 4.378,4.253z"/>
       <g id="svg_154">
        <circle id="svg_155" fill="#42403F" r="4.252" cy="281.18196" cx="323.35795"/>
        <circle id="svg_156" fill="#42403F" r="4.253" cy="281.18196" cx="344.61995"/>
       </g>
      </g>
      <g id="svg_157">
       <path id="svg_158" fill="#232221" d="m333.86495,284.01896c-0.169,0 0.167,0.017 0,0.025l0,19.085c0.167,0.009 -0.169,0.025 0,0.025c5.284,0 9.692,-4.283 9.692,-9.568c0,-5.284 -4.408,-9.567 -9.692,-9.567z"/>
       <path id="svg_159" fill="#232221" d="m333.86495,274.09496c-0.171,0 0.166,0.03 0,0.051l0,8.403c0.166,0.021 -0.171,0.051 0,0.051c2.349,0 4.378,-1.903 4.378,-4.252c0,-2.348 -2.03,-4.253 -4.378,-4.253z"/>
       <g id="svg_160">
        <circle id="svg_161" fill="#232221" r="4.253" cy="281.18196" cx="344.61995"/>
       </g>
      </g>
     </g>
     <g id="svg_162">
      <g id="svg_163">
       <path id="svg_164" fill="#42403F" d="m413.37695,293.58596c0,5.285 -4.409,9.568 -9.693,9.568c-5.285,0 -9.443,-4.283 -9.443,-9.568c0,-5.284 4.158,-9.567 9.443,-9.567c5.284,0 9.693,4.283 9.693,9.567z"/>
       <path id="svg_165" fill="#42403F" d="m408.06095,278.34796c0,2.349 -2.029,4.252 -4.377,4.252c-2.35,0 -4.129,-1.903 -4.129,-4.252c0,-2.349 1.779,-4.253 4.129,-4.253c2.348,0 4.377,1.905 4.377,4.253z"/>
       <g id="svg_166">
        <circle id="svg_167" fill="#42403F" r="4.253" cy="281.18196" cx="393.17695"/>
        <circle id="svg_168" fill="#42403F" r="4.252" cy="281.18196" cx="414.43895"/>
       </g>
      </g>
      <g id="svg_169">
       <path id="svg_170" fill="#232221" d="m403.68395,284.01896c-0.17,0 0.166,0.017 0,0.025l0,19.085c0.166,0.009 -0.17,0.025 0,0.025c5.284,0 9.693,-4.283 9.693,-9.568c0,-5.284 -4.409,-9.567 -9.693,-9.567z"/>
       <path id="svg_171" fill="#232221" d="m403.68395,274.09496c-0.172,0 0.166,0.03 0,0.051l0,8.403c0.166,0.021 -0.172,0.051 0,0.051c2.348,0 4.377,-1.903 4.377,-4.252c0,-2.348 -2.029,-4.253 -4.377,-4.253z"/>
       <g id="svg_172">
        <circle id="svg_173" fill="#232221" r="4.252" cy="281.18196" cx="414.43895"/>
       </g>
      </g>
     </g>
    </g>
    <g id="svg_174">
     <g id="svg_175">
      <polygon id="svg_176" fill="#AC5918" points="317.3109474182129,363.86798095703125 370.5509490966797,350.8399658203125 337.31494903564453,326.533935546875 317.3109474182129,328.30096435546875 "/>
      <g id="svg_177">
       <path id="svg_178" fill="#E0874B" d="m317.31095,328.30096c-10.273,0.487 -18.853,8.263 -18.853,17.783c0,9.52 8.58,17.296 18.853,17.783l0,-35.566z"/>
       <path id="svg_179" fill="#D5742A" d="m317.31095,328.30096c10.272,0.487 18.027,8.263 18.027,17.783c0,9.52 -7.755,17.296 -18.027,17.783l0,-35.566z"/>
      </g>
      <g id="svg_180">
       <g id="svg_181">
        <path id="svg_182" fill="#42403F" d="m327.25195,350.58596c0,5.285 -4.656,9.568 -9.941,9.568s-9.195,-4.283 -9.195,-9.568c0,-5.284 3.91,-9.567 9.195,-9.567s9.941,4.283 9.941,9.567z"/>
        <path id="svg_183" fill="#42403F" d="m321.93595,335.34796c0,2.349 -2.276,4.252 -4.625,4.252c-2.35,0 -3.88,-1.903 -3.88,-4.252c0,-2.349 1.53,-4.253 3.88,-4.253c2.349,0 4.625,1.904 4.625,4.253z"/>
        <g id="svg_184">
         <circle id="svg_185" fill="#42403F" r="4.253" cy="338.18196" cx="307.05195"/>
         <circle id="svg_186" fill="#42403F" r="4.252" cy="338.18196" cx="328.31495"/>
        </g>
       </g>
       <g id="svg_187">
        <path id="svg_188" fill="#232221" d="m317.31095,341.01896c-0.169,0 0.166,0.017 0,0.025l0,19.085c0.166,0.009 -0.169,0.025 0,0.025c5.285,0 9.941,-4.283 9.941,-9.568c0,-5.284 -4.656,-9.567 -9.941,-9.567z"/>
        <path id="svg_189" fill="#232221" d="m317.31095,331.09496c-0.172,0 0.166,0.03 0,0.051l0,8.403c0.166,0.02 -0.172,0.051 0,0.051c2.349,0 4.625,-1.903 4.625,-4.252c0,-2.349 -2.276,-4.253 -4.625,-4.253z"/>
        <g id="svg_190">
         <circle id="svg_191" fill="#232221" r="4.252" cy="338.18196" cx="328.31495"/>
        </g>
       </g>
      </g>
     </g>
     <g id="svg_192">
      <polygon id="svg_193" fill="#774730" points="421.5839538574219,363.86798095703125 367.93094635009766,350.8399658203125 401.1659469604492,326.533935546875 421.5839538574219,328.30096435546875 "/>
      <g id="svg_194">
       <path id="svg_195" fill="#E0874B" d="m423.77395,328.30096c-10.273,0.487 -18.315,8.263 -18.315,17.783c0,9.52 8.042,17.296 18.315,17.783l0,-35.566z"/>
       <path id="svg_196" fill="#D5742A" d="m423.77395,328.30096c10.273,0.487 18.564,8.263 18.564,17.783c0,9.52 -8.291,17.296 -18.564,17.783l0,-35.566z"/>
      </g>
      <g id="svg_197">
       <g id="svg_198">
        <path id="svg_199" fill="#42403F" d="m433.46695,351.08596c0,5.285 -4.408,9.568 -9.693,9.568c-5.285,0 -9.443,-4.283 -9.443,-9.568c0,-5.284 4.158,-9.567 9.443,-9.567c5.285,0 9.693,4.283 9.693,9.567z"/>
        <path id="svg_200" fill="#42403F" d="m428.15095,335.84796c0,2.349 -2.029,4.252 -4.377,4.252c-2.35,0 -4.129,-1.903 -4.129,-4.252c0,-2.349 1.779,-4.253 4.129,-4.253c2.347,0 4.377,1.904 4.377,4.253z"/>
        <g id="svg_201">
         <circle id="svg_202" fill="#42403F" r="4.253" cy="338.68196" cx="413.26695"/>
         <circle id="svg_203" fill="#42403F" r="4.252" cy="338.68196" cx="434.52995"/>
        </g>
       </g>
       <g id="svg_204">
        <path id="svg_205" fill="#232221" d="m423.77395,341.51896c-0.17,0 0.166,0.017 0,0.025l0,19.085c0.166,0.009 -0.17,0.025 0,0.025c5.285,0 9.693,-4.283 9.693,-9.568c0,-5.284 -4.408,-9.567 -9.693,-9.567z"/>
        <path id="svg_206" fill="#232221" d="m423.77395,331.59496c-0.172,0 0.166,0.03 0,0.051l0,8.403c0.166,0.02 -0.172,0.051 0,0.051c2.348,0 4.377,-1.903 4.377,-4.252c0,-2.349 -2.03,-4.253 -4.377,-4.253z"/>
        <g id="svg_207">
         <circle id="svg_208" fill="#232221" r="4.252" cy="338.68196" cx="434.52995"/>
        </g>
       </g>
      </g>
     </g>
    </g>
    <g id="svg_209">
     <g id="svg_210">
      <path id="svg_211" fill="#AC5918" d="m334.73295,197.06996c-0.188,-0.042 -0.339,-0.068 -0.448,-0.075c-15.427,-1.076 -23.198,21.831 -26.778,33.301c-2.612,8.373 -1.812,21.498 7.885,25.279c20.197,7.875 25.8,-39.129 29.334,-51.001c0.269,-0.304 0.537,-0.606 0.807,-0.912c1.857,-2.105 -8.128,-5.996 -10.8,-6.592z"/>
      <path id="svg_212" fill="#774730" d="m404.25195,197.06996c0.188,-0.042 0.339,-0.068 0.448,-0.075c15.427,-1.075 23.197,21.831 26.777,33.302c2.612,8.373 1.811,21.498 -7.885,25.279c-20.197,7.875 -25.8,-39.129 -29.334,-51.001c-0.269,-0.304 -0.537,-0.606 -0.807,-0.912c-1.856,-2.106 8.129,-5.997 10.801,-6.593z"/>
     </g>
     <g id="svg_213">
      <path id="svg_214" fill="#D5742A" d="m368.89895,191.72896c-25.615,0.191 -46.504,20.189 -46.504,44.842c0,24.652 20.889,44.65 46.504,44.842l0,-89.684z"/>
      <path id="svg_215" fill="#AC5918" d="m368.89895,191.72896c25.615,0.191 46.504,20.189 46.504,44.842c0,24.652 -20.889,44.65 -46.504,44.842l0,-89.684z"/>
     </g>
     <circle id="svg_216" fill="#AC5918" r="14.667" cy="226.84896" cx="348.89195"/>
     <g id="svg_217">
      <path id="svg_218" fill="#211A18" d="m355.82695,232.41696c0.005,1.967 -1.584,3.565 -3.551,3.569l0,0c-1.967,0.007 -3.566,-1.584 -3.572,-3.55l-0.018,-6.233c-0.005,-1.967 1.587,-3.565 3.554,-3.572l0,0c1.966,-0.004 3.564,1.586 3.57,3.553l0.017,6.233z"/>
      <path id="svg_219" fill="#211A18" d="m389.11195,232.32396c0.006,1.967 -1.586,3.566 -3.551,3.571l0,0c-1.969,0.006 -3.566,-1.585 -3.574,-3.551l-0.016,-6.232c-0.006,-1.968 1.585,-3.566 3.552,-3.571l0,0c1.968,-0.007 3.567,1.583 3.572,3.55l0.017,6.233z"/>
     </g>
     <g id="svg_220">
      <path id="svg_221" fill="#FFE5B5" d="m368.89895,238.77696c-13.77,0.071 -24.998,7.612 -24.998,16.905c0,9.295 11.229,16.835 24.998,16.907l0,-33.812z"/>
      <path id="svg_222" fill="#FFD5B3" d="m368.89895,238.77696c13.771,0.071 24.999,7.612 24.999,16.905c0,9.295 -11.229,16.835 -24.999,16.907l0,-33.812z"/>
     </g>
     <g id="svg_223">
      <path id="svg_224" fill="#42403F" d="m368.24595,236.05496c-6.674,0.241 -11.978,4.086 -11.978,8.794c0,4.709 5.304,8.555 11.978,8.795l0,-17.589z"/>
      <path id="svg_225" fill="#232221" d="m368.24595,236.05496c6.674,0.241 11.979,4.086 11.979,8.794c0,4.709 -5.305,8.555 -11.979,8.795l0,-17.589z"/>
     </g>
    </g>
   </g>
   <g transform="matrix(0.8639356490366622,0,0,0.8639356490366622,0,0) " id="svg_226"/>
   <g transform="matrix(0.8639356490366622,0,0,0.8639356490366622,0,0) " id="svg_227"/>
   <g transform="matrix(0.8639356490366622,0,0,0.8639356490366622,0,0) " id="svg_228"/>
   <g transform="matrix(0.8639356490366622,0,0,0.8639356490366622,0,0) " id="svg_229"/>
   <g transform="matrix(0.8639356490366622,0,0,0.8639356490366622,0,0) " id="svg_230"/>
   <g transform="matrix(0.8639356490366622,0,0,0.8639356490366622,0,0) " id="svg_231"/>
   <g transform="matrix(0.8639356490366622,0,0,0.8639356490366622,0,0) " id="svg_232"/>
   <g transform="matrix(0.8639356490366622,0,0,0.8639356490366622,0,0) " id="svg_233"/>
   <g transform="matrix(0.8639356490366622,0,0,0.8639356490366622,0,0) " id="svg_234"/>
   <g transform="matrix(0.8639356490366622,0,0,0.8639356490366622,0,0) " id="svg_235"/>
   <g transform="matrix(0.8639356490366622,0,0,0.8639356490366622,0,0) " id="svg_236"/>
   <g transform="matrix(0.8639356490366622,0,0,0.8639356490366622,0,0) " id="svg_237"/>
   <g transform="matrix(0.8639356490366622,0,0,0.8639356490366622,0,0) " id="svg_238"/>
   <g transform="matrix(0.8639356490366622,0,0,0.8639356490366622,0,0) " id="svg_239"/>
   <g transform="matrix(0.8639356490366622,0,0,0.8639356490366622,0,0) " id="svg_240"/>
  </g>
 </g>
</svg>