<svg width="1280" height="960" xmlns="http://www.w3.org/2000/svg">
 <!-- Created with Method Draw - http://github.com/duopixel/Method-Draw/ -->

 <g>
  <title transform="translate(-5,-4) ">background</title>
  <rect fill="#fff" id="canvas_background" height="962" width="1282" y="-5" x="-6"/>
  <g display="none" overflow="visible" y="0" x="0" height="100%" width="100%" id="canvasGrid">
   <rect fill="url(#gridpattern)" stroke-width="0" y="-3" x="-4" height="480" width="640"/>
  </g>
 </g>
 <g>
  <title transform="translate(-156,4) ">Layer 1</title>
  <g id="svg_121"/>
  <g id="svg_241">
   <g transform="matrix(0.8639356490366622,0,0,0.8639356490366622,0,0) " id="svg_226"/>
   <g transform="matrix(0.8639356490366622,0,0,0.8639356490366622,0,0) " id="svg_227"/>
   <g transform="matrix(0.8639356490366622,0,0,0.8639356490366622,0,0) " id="svg_228"/>
   <g transform="matrix(0.8639356490366622,0,0,0.8639356490366622,0,0) " id="svg_229"/>
   <g transform="matrix(0.8639356490366622,0,0,0.8639356490366622,0,0) " id="svg_230"/>
   <g transform="matrix(0.8639356490366622,0,0,0.8639356490366622,0,0) " id="svg_231"/>
   <g transform="matrix(0.8639356490366622,0,0,0.8639356490366622,0,0) " id="svg_232"/>
   <g transform="matrix(0.8639356490366622,0,0,0.8639356490366622,0,0) " id="svg_233"/>
   <g transform="matrix(0.8639356490366622,0,0,0.8639356490366622,0,0) " id="svg_234"/>
   <g transform="matrix(0.8639356490366622,0,0,0.8639356490366622,0,0) " id="svg_235"/>
   <g transform="matrix(0.8639356490366622,0,0,0.8639356490366622,0,0) " id="svg_236"/>
   <g transform="matrix(0.8639356490366622,0,0,0.8639356490366622,0,0) " id="svg_237"/>
   <g transform="matrix(0.8639356490366622,0,0,0.8639356490366622,0,0) " id="svg_238"/>
   <g transform="matrix(0.8639356490366622,0,0,0.8639356490366622,0,0) " id="svg_239"/>
   <g transform="matrix(0.8639356490366622,0,0,0.8639356490366622,0,0) " id="svg_240"/>
   <g stroke="null" id="svg_246">
    <path stroke="null" id="svg_245" d="m847.11292,455.99997l-443.22578,0a51.14144,93.3683 0 0 0 0,186.73661l443.22578,0a51.14144,93.3683 0 0 0 0,-186.73661zm17.04715,248.98214l-477.32007,0a17.04715,31.12277 0 0 0 -17.04715,31.12277l0,31.12277a68.18858,124.49107 0 0 0 68.18858,124.49107l375.0372,0a68.18858,124.49107 0 0 0 68.18858,-124.49107l0,-31.12277a17.04715,31.12277 0 0 0 -17.04715,-31.12277zm-448.93657,-311.22768l420.55307,0c36.83249,0 58.19469,-85.39309 37.09885,-147.59972c-42.80964,-126.28063 -137.04839,-225.67897 -247.37539,-225.87349c-110.31634,0.19452 -204.56574,99.59286 -247.37539,225.85403c-21.11715,62.20663 0.26636,147.61918 37.09885,147.61918zm346.6537,-217.85937a17.04715,31.12277 0 1 1 -17.04715,31.12277a17.04715,31.12277 0 0 1 17.04715,-31.12277zm-136.37716,-62.24554a17.04715,31.12277 0 1 1 -17.04715,31.12277a17.04715,31.12277 0 0 1 17.04715,-31.12277zm-136.37716,62.24554a17.04715,31.12277 0 1 1 -17.04715,31.12277a17.04715,31.12277 0 0 1 17.04715,-31.12277z" fill="#FABA6F"/>
   </g>
  </g>
 </g>
</svg>