<svg width="1600" height="1200" xmlns="http://www.w3.org/2000/svg">
 <!-- Created with Method Draw - http://github.com/duopixel/Method-Draw/ -->

 <g>
  <title transform="translate(-5,-4) ">background</title>
  <rect fill="#fff" id="canvas_background" height="1202" width="1602" y="-1" x="-1"/>
  <g display="none" overflow="visible" y="0" x="0" height="100%" width="100%" id="canvasGrid">
   <rect fill="url(#gridpattern)" stroke-width="0" y="-3" x="-4" height="480" width="640"/>
  </g>
 </g>
 <g>
  <title transform="translate(-156,4) ">Layer 1</title>
  <g id="svg_121"/>
  <g stroke="null" id="svg_241">
   <g stroke="null" transform="matrix(0.8639356490366622,0,0,0.8163488791544595,0,-11.569696996034423) " id="svg_226"/>
   <g stroke="null" transform="matrix(0.8639356490366622,0,0,0.8163488791544595,0,-11.569696996034423) " id="svg_227"/>
   <g stroke="null" transform="matrix(0.8639356490366622,0,0,0.8163488791544595,0,-11.569696996034423) " id="svg_228"/>
   <g stroke="null" transform="matrix(0.8639356490366622,0,0,0.8163488791544595,0,-11.569696996034423) " id="svg_229"/>
   <g stroke="null" transform="matrix(0.8639356490366622,0,0,0.8163488791544595,0,-11.569696996034423) " id="svg_230"/>
   <g stroke="null" transform="matrix(0.8639356490366622,0,0,0.8163488791544595,0,-11.569696996034423) " id="svg_231"/>
   <g stroke="null" transform="matrix(0.8639356490366622,0,0,0.8163488791544595,0,-11.569696996034423) " id="svg_232"/>
   <g stroke="null" transform="matrix(0.8639356490366622,0,0,0.8163488791544595,0,-11.569696996034423) " id="svg_233"/>
   <g stroke="null" transform="matrix(0.8639356490366622,0,0,0.8163488791544595,0,-11.569696996034423) " id="svg_234"/>
   <g stroke="null" transform="matrix(0.8639356490366622,0,0,0.8163488791544595,0,-11.569696996034423) " id="svg_235"/>
   <g stroke="null" transform="matrix(0.8639356490366622,0,0,0.8163488791544595,0,-11.569696996034423) " id="svg_236"/>
   <g stroke="null" transform="matrix(0.8639356490366622,0,0,0.8163488791544595,0,-11.569696996034423) " id="svg_237"/>
   <g stroke="null" transform="matrix(0.8639356490366622,0,0,0.8163488791544595,0,-11.569696996034423) " id="svg_238"/>
   <g stroke="null" transform="matrix(0.8639356490366622,0,0,0.8163488791544595,0,-11.569696996034423) " id="svg_239"/>
   <g stroke="null" transform="matrix(0.8639356490366622,0,0,0.8163488791544595,0,-11.569696996034423) " id="svg_240"/>
   <g stroke="null" id="svg_246">
    <path stroke="null" id="svg_245" d="m1345.11292,535.99998l-443.22578,0a51.14144,88.22545 0 0 0 0,176.45089l443.22578,0a51.14144,88.22545 0 0 0 0,-176.45089zm17.04715,235.26786l-477.32007,0a17.04715,29.40848 0 0 0 -17.04715,29.40848l0,29.40848a68.18858,117.63393 0 0 0 68.18858,117.63393l375.0372,0a68.18858,117.63393 0 0 0 68.18858,-117.63393l0,-29.40848a17.04715,29.40848 0 0 0 -17.04715,-29.40848zm-448.93657,-294.08482l420.55307,0c36.83249,0 58.19469,-80.68952 37.09885,-139.46973c-42.80964,-119.32492 -137.04839,-213.24826 -247.37539,-213.43206c-110.31634,0.1838 -204.56574,94.10714 -247.37539,213.41368c-21.11715,58.7802 0.26636,139.48811 37.09885,139.48811zm346.6537,-205.85938a17.04715,29.40848 0 1 1 -17.04715,29.40848a17.04715,29.40848 0 0 1 17.04715,-29.40848zm-136.37716,-58.81696a17.04715,29.40848 0 1 1 -17.04715,29.40848a17.04715,29.40848 0 0 1 17.04715,-29.40848zm-136.37716,58.81696a17.04715,29.40848 0 1 1 -17.04715,29.40848a17.04715,29.40848 0 0 1 17.04715,-29.40848z" fill="#FABA6F"/>
   </g>
  </g>
 </g>
</svg>