<svg width="800" height="600" xmlns="http://www.w3.org/2000/svg">
 <!-- Created with Method Draw - http://github.com/duopixel/Method-Draw/ -->

 <g>
  <title>background</title>
  <rect fill="#fff" id="canvas_background" height="602" width="802" y="-1" x="-1"/>
  <g display="none" overflow="visible" y="0" x="0" height="100%" width="100%" id="canvasGrid">
   <rect fill="url(#gridpattern)" stroke-width="0" y="0" x="0" height="100%" width="100%"/>
  </g>
 </g>
 <g>
  <title>Layer 1</title>
  <g id="svg_5">
   <path id="svg_4" d="m431.73828,300l-63.47656,0a7.32422,7.32422 0 0 0 0,14.64844l63.47656,0a7.32422,7.32422 0 0 0 0,-14.64844zm2.44141,19.53125l-68.35938,0a2.44141,2.44141 0 0 0 -2.44141,2.44141l0,2.44141a9.76563,9.76563 0 0 0 9.76563,9.76563l53.71094,0a9.76563,9.76563 0 0 0 9.76563,-9.76563l0,-2.44141a2.44141,2.44141 0 0 0 -2.44141,-2.44141zm-64.29443,-24.41406l60.22949,0c5.27496,0 8.33435,-6.69861 5.31311,-11.57837c-6.13098,-9.90601 -19.62738,-17.70325 -35.42786,-17.71851c-15.79895,0.01526 -29.29688,7.8125 -35.42786,17.71698c-3.02429,4.87976 0.03815,11.5799 5.31311,11.5799zm49.646,-17.08984a2.44141,2.44141 0 1 1 -2.44141,2.44141a2.44141,2.44141 0 0 1 2.44141,-2.44141zm-19.53125,-4.88281a2.44141,2.44141 0 1 1 -2.44141,2.44141a2.44141,2.44141 0 0 1 2.44141,-2.44141zm-19.53125,4.88281a2.44141,2.44141 0 1 1 -2.44141,2.44141a2.44141,2.44141 0 0 1 2.44141,-2.44141z" fill="#A98E49"/>
  </g>
 </g>
</svg>