<svg width="1280" height="960" xmlns="http://www.w3.org/2000/svg">
 <!-- Created with Method Draw - http://github.com/duopixel/Method-Draw/ -->

 <g>
  <title>background</title>
  <rect fill="#fff" id="canvas_background" height="962" width="1282" y="-1" x="-1"/>
  <g display="none" overflow="visible" y="0" x="0" height="100%" width="100%" id="canvasGrid">
   <rect fill="url(#gridpattern)" stroke-width="0" y="0" x="0" height="100%" width="100%"/>
  </g>
 </g>
 <g>
  <title>Layer 1</title>
  <g stroke="null" id="svg_5">
   <path stroke="null" id="svg_4" d="m873.77502,28.12496l-494.55004,0c-15.17135,0 -27.475,27.62843 -27.475,61.69643l0,740.35715c0,34.068 12.30365,61.69643 27.475,61.69643l494.55004,0c15.17135,0 27.475,-27.62843 27.475,-61.69643l0,-740.35715c0,-34.068 -12.30365,-61.69643 -27.475,-61.69643zm-370.91253,570.46061l0,31.07958c0,8.52182 -3.07377,15.42411 -6.86875,15.42411l-13.7375,0c-3.79498,0 -6.86875,-6.90229 -6.86875,-15.42411l0,-31.40734c-9.69352,-1.11825 -19.12088,-8.71462 -26.93409,-21.88295c-3.34852,-5.64908 -3.52023,-16.90868 -0.4894,-23.40608l10.08848,-21.61303c2.3783,-5.08996 5.91571,-5.32132 8.69756,-1.40745c3.32276,4.66579 7.09198,7.17221 11.00717,7.17221l24.13507,0c5.58086,0 10.13141,-11.41384 10.13141,-25.4305c0,-11.47168 -3.09952,-21.57447 -7.52987,-24.54361l-38.63672,-26.02818c-15.96126,-10.75831 -27.11439,-45.15407 -27.11439,-83.6565c0,-47.27489 16.35621,-85.68092 36.6362,-86.89557l0,-31.07958c0,-8.52182 3.07377,-15.42411 6.86875,-15.42411l13.7375,0c3.79498,0 6.86875,6.90229 6.86875,15.42411l0,31.40734c9.69352,1.11825 19.12088,8.69534 26.93409,21.88295c3.34852,5.64908 3.52023,16.90868 0.4894,23.40608l-10.08848,21.61303c-2.3783,5.08996 -5.91571,5.32132 -8.69756,1.40745c-3.32276,-4.68507 -7.09198,-7.17221 -11.00717,-7.17221l-24.13507,0c-5.58086,0 -10.13141,11.41384 -10.13141,25.4305c0,11.47168 3.09952,21.57447 7.52987,24.54361l38.63672,26.02818c15.96126,10.75831 27.11439,45.15407 27.11439,83.6565c0,47.29417 -16.35621,85.68092 -36.6362,86.89557zm206.06252,-30.61685c0,8.52182 -3.07377,15.42411 -6.86875,15.42411l-96.16251,0c-3.79498,0 -6.86875,-6.90229 -6.86875,-15.42411l0,-30.84821c0,-8.52182 3.07377,-15.42411 6.86875,-15.42411l96.16251,0c3.79498,0 6.86875,6.90229 6.86875,15.42411l0,30.84821zm137.37501,0c0,8.52182 -3.07377,15.42411 -6.86875,15.42411l-68.68751,0c-3.79498,0 -6.86875,-6.90229 -6.86875,-15.42411l0,-30.84821c0,-8.52182 3.07377,-15.42411 6.86875,-15.42411l68.68751,0c3.79498,0 6.86875,6.90229 6.86875,15.42411l0,30.84821zm0,-185.08929c0,8.52182 -3.07377,15.42411 -6.86875,15.42411l-233.53752,0c-3.79498,0 -6.86875,-6.90229 -6.86875,-15.42411l0,-30.84821c0,-8.52182 3.07377,-15.42411 6.86875,-15.42411l233.53752,0c3.79498,0 6.86875,6.90229 6.86875,15.42411l0,30.84821z" fill="#FABA6F"/>
  </g>
 </g>
</svg>