<svg width="800" height="600" xmlns="http://www.w3.org/2000/svg">
 <!-- Created with Method Draw - http://github.com/duopixel/Method-Draw/ -->

 <g>
  <title>background</title>
  <rect fill="#fff" id="canvas_background" height="602" width="802" y="-1" x="-1"/>
  <g display="none" overflow="visible" y="0" x="0" height="100%" width="100%" id="canvasGrid">
   <rect fill="url(#gridpattern)" stroke-width="0" y="0" x="0" height="100%" width="100%"/>
  </g>
 </g>
 <g>
  <title>Layer 1</title>
  <g id="svg_111">
   <g transform="matrix(1.3498995208715456,0,0,1.3498995208715456,0,0) " id="svg_5">
    <g id="svg_6">
     <g id="svg_7">
      <path id="svg_8" fill="#AC5918" d="m294.81834,208.69727c-16.932,0.757 -33.739,11.889 -33.662,32.39l0.153,22.713c0.08,21.309 16.573,31.488 33.509,31.48l0,-86.583z"/>
      <path id="svg_9" fill="#774730" d="m294.81834,208.69727c16.938,0.629 33.434,11.635 33.511,32.136l0.152,22.712c0.081,21.31 -16.727,31.614 -33.663,31.735l0,-86.583z"/>
     </g>
    </g>
    <g id="svg_10">
     <path id="svg_11" fill="#D5742A" d="m294.81734,228.70927c-13.609,0.827 -24.428,14.013 -24.428,30.157c0,16.145 10.818,29.332 24.428,30.158l0,-60.315z"/>
     <path id="svg_12" fill="#AC5918" d="m294.81934,228.70927c13.609,0.827 24.428,14.013 24.428,30.157c0,16.145 -10.818,29.332 -24.428,30.158l0,-60.315z"/>
    </g>
    <g id="svg_13">
     <g id="svg_14">
      <path id="svg_15" fill="#E0874B" d="m259.78534,215.56727c-10.274,0.488 -18.316,8.263 -18.316,17.784c0,9.52 8.042,17.297 18.315,17.783l0,-35.567l0.001,0z"/>
      <path id="svg_16" fill="#D5742A" d="m259.78534,215.56727c10.272,0.488 18.564,8.263 18.564,17.784c0,9.52 -8.292,17.297 -18.564,17.783l0,-35.567z"/>
     </g>
     <g id="svg_17">
      <path id="svg_18" fill="#E0874B" d="m329.60434,215.56727c-10.273,0.487 -18.314,8.263 -18.314,17.783c0,9.52 8.041,17.297 18.314,17.783l0,-35.566z"/>
      <path id="svg_19" fill="#D5742A" d="m329.60434,215.56727c10.271,0.487 18.564,8.263 18.564,17.783c0,9.52 -8.293,17.297 -18.564,17.783l0,-35.566z"/>
     </g>
     <g id="svg_20">
      <g id="svg_21">
       <path id="svg_22" fill="#42403F" d="m269.47734,238.02627c0,5.285 -4.408,9.568 -9.692,9.568c-5.285,0 -9.443,-4.283 -9.443,-9.568c0,-5.284 4.158,-9.567 9.443,-9.567c5.284,0 9.692,4.283 9.692,9.567z"/>
       <path id="svg_23" fill="#42403F" d="m264.16334,222.78827c0,2.349 -2.029,4.252 -4.378,4.252c-2.349,0 -4.128,-1.903 -4.128,-4.252c0,-2.349 1.779,-4.253 4.128,-4.253c2.348,0 4.378,1.905 4.378,4.253z"/>
       <g id="svg_24">
        <circle id="svg_25" fill="#42403F" r="4.252" cy="225.62227" cx="249.27834"/>
        <circle id="svg_26" fill="#42403F" r="4.253" cy="225.62227" cx="270.54034"/>
       </g>
      </g>
      <g id="svg_27">
       <path id="svg_28" fill="#232221" d="m259.78534,228.45927c-0.169,0 0.167,0.017 0,0.025l0,19.085c0.167,0.009 -0.169,0.025 0,0.025c5.284,0 9.692,-4.283 9.692,-9.568c0,-5.284 -4.408,-9.567 -9.692,-9.567z"/>
       <path id="svg_29" fill="#232221" d="m259.78534,218.53527c-0.171,0 0.166,0.03 0,0.051l0,8.403c0.166,0.021 -0.171,0.051 0,0.051c2.349,0 4.378,-1.903 4.378,-4.252c0,-2.348 -2.03,-4.253 -4.378,-4.253z"/>
       <g id="svg_30">
        <circle id="svg_31" fill="#232221" r="4.253" cy="225.62227" cx="270.54034"/>
       </g>
      </g>
     </g>
     <g id="svg_32">
      <g id="svg_33">
       <path id="svg_34" fill="#42403F" d="m339.29734,238.02627c0,5.285 -4.409,9.568 -9.693,9.568c-5.285,0 -9.443,-4.283 -9.443,-9.568c0,-5.284 4.158,-9.567 9.443,-9.567c5.284,0 9.693,4.283 9.693,9.567z"/>
       <path id="svg_35" fill="#42403F" d="m333.98134,222.78827c0,2.349 -2.029,4.252 -4.377,4.252c-2.35,0 -4.129,-1.903 -4.129,-4.252c0,-2.349 1.779,-4.253 4.129,-4.253c2.348,0 4.377,1.905 4.377,4.253z"/>
       <g id="svg_36">
        <circle id="svg_37" fill="#42403F" r="4.253" cy="225.62227" cx="319.09734"/>
        <circle id="svg_38" fill="#42403F" r="4.252" cy="225.62227" cx="340.35934"/>
       </g>
      </g>
      <g id="svg_39">
       <path id="svg_40" fill="#232221" d="m329.60434,228.45927c-0.17,0 0.166,0.017 0,0.025l0,19.085c0.166,0.009 -0.17,0.025 0,0.025c5.284,0 9.693,-4.283 9.693,-9.568c0,-5.284 -4.409,-9.567 -9.693,-9.567z"/>
       <path id="svg_41" fill="#232221" d="m329.60434,218.53527c-0.172,0 0.166,0.03 0,0.051l0,8.403c0.166,0.021 -0.172,0.051 0,0.051c2.348,0 4.377,-1.903 4.377,-4.252c0,-2.348 -2.029,-4.253 -4.377,-4.253z"/>
       <g id="svg_42">
        <circle id="svg_43" fill="#232221" r="4.252" cy="225.62227" cx="340.35934"/>
       </g>
      </g>
     </g>
    </g>
    <g id="svg_44">
     <g id="svg_45">
      <polygon id="svg_46" fill="#AC5918" points="243.23134231567383,308.30828857421875 296.4713439941406,295.2802429199219 263.23534393310547,270.9742431640625 243.23134231567383,272.74127197265625 "/>
      <g id="svg_47">
       <path id="svg_48" fill="#E0874B" d="m243.23134,272.74127c-10.273,0.487 -18.853,8.263 -18.853,17.783c0,9.52 8.58,17.296 18.853,17.783l0,-35.566z"/>
       <path id="svg_49" fill="#D5742A" d="m243.23134,272.74127c10.272,0.487 18.027,8.263 18.027,17.783c0,9.52 -7.755,17.296 -18.027,17.783l0,-35.566z"/>
      </g>
      <g id="svg_50">
       <g id="svg_51">
        <path id="svg_52" fill="#42403F" d="m253.17234,295.02627c0,5.285 -4.656,9.568 -9.941,9.568s-9.195,-4.283 -9.195,-9.568c0,-5.284 3.91,-9.567 9.195,-9.567s9.941,4.283 9.941,9.567z"/>
        <path id="svg_53" fill="#42403F" d="m247.85634,279.78827c0,2.349 -2.276,4.252 -4.625,4.252c-2.35,0 -3.88,-1.903 -3.88,-4.252c0,-2.349 1.53,-4.253 3.88,-4.253c2.349,0 4.625,1.904 4.625,4.253z"/>
        <g id="svg_54">
         <circle id="svg_55" fill="#42403F" r="4.253" cy="282.62227" cx="232.97234"/>
         <circle id="svg_56" fill="#42403F" r="4.252" cy="282.62227" cx="254.23534"/>
        </g>
       </g>
       <g id="svg_57">
        <path id="svg_58" fill="#232221" d="m243.23134,285.45927c-0.169,0 0.166,0.017 0,0.025l0,19.085c0.166,0.009 -0.169,0.025 0,0.025c5.285,0 9.941,-4.283 9.941,-9.568c0,-5.284 -4.656,-9.567 -9.941,-9.567z"/>
        <path id="svg_59" fill="#232221" d="m243.23134,275.53527c-0.172,0 0.166,0.03 0,0.051l0,8.403c0.166,0.02 -0.172,0.051 0,0.051c2.349,0 4.625,-1.903 4.625,-4.252c0,-2.349 -2.276,-4.253 -4.625,-4.253z"/>
        <g id="svg_60">
         <circle id="svg_61" fill="#232221" r="4.252" cy="282.62227" cx="254.23534"/>
        </g>
       </g>
      </g>
     </g>
     <g id="svg_62">
      <polygon id="svg_63" fill="#774730" points="347.5043487548828,308.30828857421875 293.8513412475586,295.2802429199219 327.08634185791016,270.9742431640625 347.5043487548828,272.74127197265625 "/>
      <g id="svg_64">
       <path id="svg_65" fill="#E0874B" d="m349.69434,272.74127c-10.273,0.487 -18.315,8.263 -18.315,17.783c0,9.52 8.042,17.296 18.315,17.783l0,-35.566z"/>
       <path id="svg_66" fill="#D5742A" d="m349.69434,272.74127c10.273,0.487 18.564,8.263 18.564,17.783c0,9.52 -8.291,17.296 -18.564,17.783l0,-35.566z"/>
      </g>
      <g id="svg_67">
       <g id="svg_68">
        <path id="svg_69" fill="#42403F" d="m359.38734,295.52627c0,5.285 -4.408,9.568 -9.693,9.568c-5.285,0 -9.443,-4.283 -9.443,-9.568c0,-5.284 4.158,-9.567 9.443,-9.567c5.285,0 9.693,4.283 9.693,9.567z"/>
        <path id="svg_70" fill="#42403F" d="m354.07134,280.28827c0,2.349 -2.029,4.252 -4.377,4.252c-2.35,0 -4.129,-1.903 -4.129,-4.252c0,-2.349 1.779,-4.253 4.129,-4.253c2.347,0 4.377,1.904 4.377,4.253z"/>
        <g id="svg_71">
         <circle id="svg_72" fill="#42403F" r="4.253" cy="283.12227" cx="339.18734"/>
         <circle id="svg_73" fill="#42403F" r="4.252" cy="283.12227" cx="360.45034"/>
        </g>
       </g>
       <g id="svg_74">
        <path id="svg_75" fill="#232221" d="m349.69434,285.95927c-0.17,0 0.166,0.017 0,0.025l0,19.085c0.166,0.009 -0.17,0.025 0,0.025c5.285,0 9.693,-4.283 9.693,-9.568c0,-5.284 -4.408,-9.567 -9.693,-9.567z"/>
        <path id="svg_76" fill="#232221" d="m349.69434,276.03527c-0.172,0 0.166,0.03 0,0.051l0,8.403c0.166,0.02 -0.172,0.051 0,0.051c2.348,0 4.377,-1.903 4.377,-4.252c0,-2.349 -2.03,-4.253 -4.377,-4.253z"/>
        <g id="svg_77">
         <circle id="svg_78" fill="#232221" r="4.252" cy="283.12227" cx="360.45034"/>
        </g>
       </g>
      </g>
     </g>
    </g>
    <g id="svg_79">
     <g id="svg_80">
      <path id="svg_81" fill="#AC5918" d="m260.65334,141.51027c-0.188,-0.042 -0.339,-0.068 -0.448,-0.075c-15.427,-1.076 -23.198,21.831 -26.778,33.301c-2.612,8.373 -1.812,21.498 7.885,25.279c20.197,7.875 25.8,-39.129 29.334,-51.001c0.269,-0.304 0.537,-0.606 0.807,-0.912c1.857,-2.105 -8.128,-5.996 -10.8,-6.592z"/>
      <path id="svg_82" fill="#774730" d="m330.17234,141.51027c0.188,-0.042 0.339,-0.068 0.448,-0.075c15.427,-1.075 23.197,21.831 26.777,33.302c2.612,8.373 1.811,21.498 -7.885,25.279c-20.197,7.875 -25.8,-39.129 -29.334,-51.001c-0.269,-0.304 -0.537,-0.606 -0.807,-0.912c-1.856,-2.106 8.129,-5.997 10.801,-6.593z"/>
     </g>
     <g id="svg_83">
      <path id="svg_84" fill="#D5742A" d="m294.81934,136.16927c-25.615,0.191 -46.504,20.189 -46.504,44.842c0,24.652 20.889,44.65 46.504,44.842l0,-89.684z"/>
      <path id="svg_85" fill="#AC5918" d="m294.81934,136.16927c25.615,0.191 46.504,20.189 46.504,44.842c0,24.652 -20.889,44.65 -46.504,44.842l0,-89.684z"/>
     </g>
     <circle id="svg_86" fill="#AC5918" r="14.667" cy="171.28927" cx="274.81234"/>
     <g id="svg_87">
      <path id="svg_88" fill="#211A18" d="m281.74734,176.85727c0.005,1.967 -1.584,3.565 -3.551,3.569l0,0c-1.967,0.007 -3.566,-1.584 -3.572,-3.55l-0.018,-6.233c-0.005,-1.967 1.587,-3.565 3.554,-3.572l0,0c1.966,-0.004 3.564,1.586 3.57,3.553l0.017,6.233z"/>
      <path id="svg_89" fill="#211A18" d="m315.03234,176.76427c0.006,1.967 -1.586,3.566 -3.551,3.571l0,0c-1.969,0.006 -3.566,-1.585 -3.574,-3.551l-0.016,-6.232c-0.006,-1.968 1.585,-3.566 3.552,-3.571l0,0c1.968,-0.007 3.567,1.583 3.572,3.55l0.017,6.233z"/>
     </g>
     <g id="svg_90">
      <path id="svg_91" fill="#FFE5B5" d="m294.81934,183.21727c-13.77,0.071 -24.998,7.612 -24.998,16.905c0,9.295 11.229,16.835 24.998,16.907l0,-33.812z"/>
      <path id="svg_92" fill="#FFD5B3" d="m294.81934,183.21727c13.771,0.071 24.999,7.612 24.999,16.905c0,9.295 -11.229,16.835 -24.999,16.907l0,-33.812z"/>
     </g>
     <g id="svg_93">
      <path id="svg_94" fill="#42403F" d="m294.16634,180.49527c-6.674,0.241 -11.978,4.086 -11.978,8.794c0,4.709 5.304,8.555 11.978,8.795l0,-17.589z"/>
      <path id="svg_95" fill="#232221" d="m294.16634,180.49527c6.674,0.241 11.979,4.086 11.979,8.794c0,4.709 -5.305,8.555 -11.979,8.795l0,-17.589z"/>
     </g>
    </g>
   </g>
   <g transform="matrix(1.3498995208715456,0,0,1.3498995208715456,0,0) " id="svg_96"/>
   <g transform="matrix(1.3498995208715456,0,0,1.3498995208715456,0,0) " id="svg_97"/>
   <g transform="matrix(1.3498995208715456,0,0,1.3498995208715456,0,0) " id="svg_98"/>
   <g transform="matrix(1.3498995208715456,0,0,1.3498995208715456,0,0) " id="svg_99"/>
   <g transform="matrix(1.3498995208715456,0,0,1.3498995208715456,0,0) " id="svg_100"/>
   <g transform="matrix(1.3498995208715456,0,0,1.3498995208715456,0,0) " id="svg_101"/>
   <g transform="matrix(1.3498995208715456,0,0,1.3498995208715456,0,0) " id="svg_102"/>
   <g transform="matrix(1.3498995208715456,0,0,1.3498995208715456,0,0) " id="svg_103"/>
   <g transform="matrix(1.3498995208715456,0,0,1.3498995208715456,0,0) " id="svg_104"/>
   <g transform="matrix(1.3498995208715456,0,0,1.3498995208715456,0,0) " id="svg_105"/>
   <g transform="matrix(1.3498995208715456,0,0,1.3498995208715456,0,0) " id="svg_106"/>
   <g transform="matrix(1.3498995208715456,0,0,1.3498995208715456,0,0) " id="svg_107"/>
   <g transform="matrix(1.3498995208715456,0,0,1.3498995208715456,0,0) " id="svg_108"/>
   <g transform="matrix(1.3498995208715456,0,0,1.3498995208715456,0,0) " id="svg_109"/>
   <g transform="matrix(1.3498995208715456,0,0,1.3498995208715456,0,0) " id="svg_110"/>
  </g>
 </g>
</svg>