<svg width="1600" height="1200" xmlns="http://www.w3.org/2000/svg">
 <!-- Created with Method Draw - http://github.com/duopixel/Method-Draw/ -->

 <g>
  <title>background</title>
  <rect fill="#fff" id="canvas_background" height="1202" width="1602" y="-1" x="-1"/>
  <g display="none" overflow="visible" y="0" x="0" height="100%" width="100%" id="canvasGrid">
   <rect fill="url(#gridpattern)" stroke-width="0" y="1" x="1" height="480" width="640"/>
  </g>
 </g>
 <g>
  <title>Layer 1</title>
  <g id="svg_121"/>
  <g id="svg_241">
   <g transform="matrix(0.8639356490366622,0,0,0.8639356490366622,0,0) " id="svg_226"/>
   <g transform="matrix(0.8639356490366622,0,0,0.8639356490366622,0,0) " id="svg_227"/>
   <g transform="matrix(0.8639356490366622,0,0,0.8639356490366622,0,0) " id="svg_228"/>
   <g transform="matrix(0.8639356490366622,0,0,0.8639356490366622,0,0) " id="svg_229"/>
   <g transform="matrix(0.8639356490366622,0,0,0.8639356490366622,0,0) " id="svg_230"/>
   <g transform="matrix(0.8639356490366622,0,0,0.8639356490366622,0,0) " id="svg_231"/>
   <g transform="matrix(0.8639356490366622,0,0,0.8639356490366622,0,0) " id="svg_232"/>
   <g transform="matrix(0.8639356490366622,0,0,0.8639356490366622,0,0) " id="svg_233"/>
   <g transform="matrix(0.8639356490366622,0,0,0.8639356490366622,0,0) " id="svg_234"/>
   <g transform="matrix(0.8639356490366622,0,0,0.8639356490366622,0,0) " id="svg_235"/>
   <g transform="matrix(0.8639356490366622,0,0,0.8639356490366622,0,0) " id="svg_236"/>
   <g transform="matrix(0.8639356490366622,0,0,0.8639356490366622,0,0) " id="svg_237"/>
   <g transform="matrix(0.8639356490366622,0,0,0.8639356490366622,0,0) " id="svg_238"/>
   <g transform="matrix(0.8639356490366622,0,0,0.8639356490366622,0,0) " id="svg_239"/>
   <g transform="matrix(0.8639356490366622,0,0,0.8639356490366622,0,0) " id="svg_240"/>
   <g stroke="null" id="svg_246">
    <path stroke="null" id="svg_245" d="m1109.39417,430.49995l-492.78829,0a56.86019,88.54687 0 0 0 0,177.09374l492.78829,0a56.86019,88.54687 0 0 0 0,-177.09374zm18.9534,236.12499l-530.69508,0a18.9534,29.51562 0 0 0 -18.9534,29.51562l0,29.51562a75.81358,118.06249 0 0 0 75.81358,118.06249l416.9747,0a75.81358,118.06249 0 0 0 75.81358,-118.06249l0,-29.51562a18.9534,29.51562 0 0 0 -18.9534,-29.51562zm-499.13767,-295.15623l467.58027,0c40.95118,0 64.70215,-80.98349 41.24733,-139.97784c-47.59671,-119.75964 -152.37345,-214.02516 -275.03746,-214.20964c-122.65216,0.18447 -227.44075,94.44999 -275.03746,214.19119c-23.47852,58.99435 0.29615,139.99629 41.24733,139.99629zm385.4173,-206.60936a18.9534,29.51562 0 1 1 -18.9534,29.51562a18.9534,29.51562 0 0 1 18.9534,-29.51562zm-151.62716,-59.03125a18.9534,29.51562 0 1 1 -18.9534,29.51562a18.9534,29.51562 0 0 1 18.9534,-29.51562zm-151.62716,59.03125a18.9534,29.51562 0 1 1 -18.9534,29.51562a18.9534,29.51562 0 0 1 18.9534,-29.51562z" fill="#FABA6F"/>
   </g>
  </g>
 </g>
</svg>