<?xml version="1.0" standalone="no"?>
<!DOCTYPE svg PUBLIC "-//W3C//DTD SVG 20010904//EN"
 "http://www.w3.org/TR/2001/REC-SVG-20010904/DTD/svg10.dtd">
<svg version="1.0" xmlns="http://www.w3.org/2000/svg"
 width="512.000000pt" height="512.000000pt" viewBox="0 0 512.000000 512.000000"
 preserveAspectRatio="xMidYMid meet">

<g transform="translate(0.000000,512.000000) scale(0.100000,-0.100000)"
fill="#000000" stroke="none">
<path d="M2421 4994 c-178 -48 -328 -199 -376 -380 -11 -40 -15 -91 -13 -158
l3 -99 -77 -46 c-282 -167 -481 -450 -547 -778 -19 -91 -21 -137 -21 -446 l0
-346 -62 -33 c-100 -53 -172 -127 -219 -224 -23 -46 -45 -84 -50 -84 -26 0
-123 -58 -164 -97 -105 -100 -150 -216 -143 -371 3 -83 8 -107 35 -164 l32
-68 -32 -61 -32 -62 0 -208 0 -207 30 -44 c27 -38 52 -54 207 -133 l177 -90 3
-315 c3 -315 3 -315 28 -360 14 -24 45 -58 68 -75 l44 -30 266 -3 c173 -2 280
1 304 8 49 14 94 53 121 104 22 41 22 46 27 656 5 607 5 615 25 614 11 -1 64
-18 118 -38 147 -54 252 -69 432 -63 162 6 246 23 380 76 41 17 82 28 90 25
12 -5 15 -91 17 -617 l3 -612 25 -45 c14 -24 45 -58 68 -75 l44 -30 266 -3
c173 -2 280 1 304 8 49 14 94 53 121 104 21 39 22 53 25 356 l3 315 177 90
c155 79 180 95 207 133 l30 44 0 207 0 208 -32 62 -32 61 32 68 c27 57 32 81
35 164 7 155 -38 271 -143 371 -41 39 -138 97 -164 97 -5 0 -27 38 -50 84 -47
97 -119 171 -219 224 l-62 33 0 343 c0 435 -12 513 -111 724 -98 211 -274 402
-474 514 l-60 34 3 99 c2 68 -2 119 -13 159 -49 183 -199 334 -380 381 -73 19
-202 18 -274 -1z m274 -225 c103 -49 173 -151 183 -266 2 -35 2 -63 -1 -63 -3
0 -39 8 -79 17 -52 12 -119 17 -238 17 -119 0 -186 -5 -238 -17 -40 -9 -75
-17 -78 -17 -11 0 -2 94 12 137 34 99 105 171 204 207 63 23 170 16 235 -15z
m37 -520 c404 -71 715 -396 778 -814 6 -42 10 -79 7 -81 -3 -3 -80 44 -173
104 -93 60 -191 117 -217 126 -59 20 -141 21 -195 2 -33 -12 -1033 -541 -1279
-677 l-53 -29 0 252 c1 341 25 467 125 642 159 280 435 458 755 489 53 5 188
-2 252 -14z m562 -1015 l226 -146 0 -159 0 -159 -42 0 c-192 -1 -397 -139
-466 -315 -16 -42 -25 -50 -66 -66 -115 -43 -217 -159 -257 -291 -32 -105 -25
-239 18 -330 18 -38 44 -83 58 -102 14 -19 22 -36 18 -39 -16 -10 -165 -27
-231 -27 -61 0 -179 14 -210 25 -8 3 0 23 27 62 110 162 110 378 0 543 -47 69
-124 133 -196 160 -42 16 -50 23 -66 65 -38 101 -125 195 -234 253 l-71 37
486 260 c736 394 723 387 754 381 14 -3 128 -71 252 -152z m-1528 -714 c60
-29 134 -99 134 -125 0 -7 14 -40 31 -74 34 -67 71 -99 149 -126 117 -41 189
-196 148 -316 -21 -64 -65 -116 -120 -143 -28 -14 -57 -26 -64 -26 -8 0 -13
41 -16 143 -3 120 -7 150 -26 192 -29 63 -92 129 -157 163 -49 27 -53 27 -245
27 -192 0 -196 0 -245 -27 -120 -64 -176 -158 -183 -311 -5 -94 -6 -98 -26
-93 -11 3 -49 6 -82 6 l-62 0 -22 52 c-18 42 -21 65 -18 113 9 108 68 187 170
225 69 26 129 87 152 156 43 131 175 208 340 200 62 -3 91 -11 142 -36z m1920
0 c75 -37 127 -93 150 -163 23 -70 82 -131 152 -157 102 -38 161 -117 170
-225 3 -48 0 -71 -18 -113 l-22 -52 -62 0 c-33 0 -71 -3 -82 -6 -20 -5 -21 -1
-26 93 -7 153 -63 247 -183 311 -49 27 -53 27 -245 27 -192 0 -196 0 -245 -27
-65 -34 -128 -100 -157 -163 -19 -42 -23 -72 -26 -192 -3 -102 -8 -143 -16
-143 -33 0 -119 55 -145 93 -56 83 -65 159 -30 251 23 62 90 130 139 141 60
13 116 60 149 126 17 34 31 67 31 73 0 6 14 28 31 49 94 114 289 149 435 77z
m-1942 -504 c68 -28 66 -12 66 -503 l0 -443 -255 0 -255 0 -170 85 -170 85 0
136 c0 150 9 183 60 209 46 24 78 19 116 -19 33 -33 34 -37 34 -110 0 -92 17
-139 59 -160 38 -20 64 -20 102 0 55 28 59 53 59 371 0 318 0 321 64 349 43
18 245 19 290 0z m1920 0 c66 -27 66 -29 66 -349 0 -318 4 -343 59 -371 38
-20 64 -20 102 0 42 21 59 68 59 160 0 73 1 77 34 110 38 38 70 43 116 19 51
-26 60 -59 60 -209 l0 -136 -170 -85 -170 -85 -255 0 -255 0 0 443 c0 489 -2
474 64 503 43 18 245 19 290 0z m-1854 -1431 l0 -265 -210 0 -210 0 0 265 0
265 210 0 210 0 0 -265z m1920 0 l0 -265 -210 0 -210 0 0 265 0 265 210 0 210
0 0 -265z"/>
</g>
</svg>
