<?xml version="1.0" standalone="no"?>
<!DOCTYPE svg PUBLIC "-//W3C//DTD SVG 20010904//EN"
 "http://www.w3.org/TR/2001/REC-SVG-20010904/DTD/svg10.dtd">
<svg version="1.0" xmlns="http://www.w3.org/2000/svg"
 width="512.000000pt" height="512.000000pt" viewBox="0 0 512.000000 512.000000"
 preserveAspectRatio="xMidYMid meet">

<g transform="translate(0.000000,512.000000) scale(0.100000,-0.100000)"
fill="#000000" stroke="none">
<path d="M3770 4977 c-121 -35 -218 -115 -273 -226 -38 -77 -38 -91 -18 -486
14 -268 13 -265 86 -265 75 0 80 11 77 146 -3 107 -2 116 14 110 96 -37 212
-34 298 8 72 35 174 129 208 193 58 105 58 233 2 340 -34 65 -109 141 -162
165 -55 25 -172 32 -232 15z m171 -150 c18 -12 47 -42 64 -66 28 -39 30 -49
30 -125 0 -79 -2 -85 -37 -139 -42 -63 -105 -106 -167 -114 -57 -8 -87 3 -136
48 -100 92 -97 246 7 349 69 70 175 90 239 47z"/>
<path d="M4277 4421 c-116 -38 -212 -122 -259 -227 -31 -69 -31 -189 0 -258
12 -27 20 -52 16 -55 -3 -3 -117 -11 -252 -17 -136 -6 -259 -14 -273 -16 -41
-8 -951 -496 -976 -524 -28 -30 -31 -94 -7 -119 9 -9 28 -15 43 -13 14 2 242
116 506 255 l480 251 300 12 c165 6 363 10 440 9 149 -3 195 5 285 51 64 33
143 112 176 177 25 51 29 69 29 148 0 74 -4 98 -23 138 -35 69 -102 134 -180
170 -87 41 -213 48 -305 18z m262 -162 c133 -66 157 -179 60 -284 -104 -112
-294 -120 -382 -15 -81 95 -39 230 92 297 85 44 144 45 230 2z"/>
<path d="M773 4033 c-104 -113 -146 -206 -147 -333 -1 -77 3 -92 33 -157 40
-87 114 -162 196 -199 30 -14 103 -34 162 -45 131 -23 165 -44 213 -127 21
-37 45 -65 62 -72 24 -11 31 -8 68 21 22 18 43 44 47 57 14 59 -61 187 -144
241 -57 38 -119 57 -232 71 -96 11 -132 30 -186 96 -42 51 -64 102 -65 152 0
42 13 41 28 -2 21 -58 96 -132 155 -154 141 -52 231 -36 606 107 264 101 455
140 722 148 282 9 492 -21 660 -92 94 -40 132 -43 163 -11 29 28 34 79 12 109
-30 39 -240 103 -438 134 -155 24 -470 24 -628 0 -152 -24 -286 -58 -445 -113
-71 -25 -188 -66 -260 -90 -200 -70 -299 -70 -372 -1 -43 40 -57 86 -55 179 1
70 -1 78 -25 102 -41 41 -78 35 -130 -21z"/>
<path d="M3430 3534 c-24 -28 -370 -795 -370 -819 0 -13 7 -31 16 -39 19 -19
89 -21 104 -3 10 11 345 693 376 765 19 42 10 68 -29 93 -39 23 -80 25 -97 3z"/>
<path d="M552 3397 c-28 -30 -28 -65 1 -147 30 -84 68 -143 133 -207 55 -54
187 -127 249 -139 19 -3 35 -9 35 -13 0 -4 -11 -41 -25 -82 -55 -160 -95 -352
-95 -455 0 -50 5 -68 31 -110 17 -27 36 -52 42 -56 7 -4 1 -20 -17 -45 -70
-96 -270 -402 -297 -454 -17 -34 -29 -74 -29 -96 0 -69 54 -128 140 -153 19
-6 51 -16 71 -22 l36 -10 -18 -62 c-24 -79 -24 -123 2 -165 17 -28 18 -39 10
-64 -19 -53 -13 -90 24 -144 l35 -52 -17 -38 c-25 -58 -23 -177 5 -229 53
-103 154 -154 344 -174 221 -23 359 -41 383 -50 37 -14 66 -81 72 -167 5 -63
10 -77 31 -93 36 -29 82 -25 129 9 32 23 42 37 45 66 11 95 -26 221 -86 292
-39 46 -96 61 -320 83 -242 25 -288 34 -342 65 -67 39 -80 102 -38 190 26 56
15 123 -29 176 -32 40 -34 46 -21 63 8 11 14 37 14 58 0 34 -5 41 -36 60 -35
21 -36 22 -29 67 4 25 13 61 21 80 17 41 18 82 2 116 -14 31 -91 69 -170 85
-32 6 -60 16 -64 21 -8 13 51 112 209 349 125 187 129 196 124 238 -3 32 -15
56 -46 93 l-42 49 11 77 c14 92 59 279 94 389 l26 82 68 7 c152 16 359 88 547
191 194 105 363 96 486 -26 52 -52 74 -113 72 -201 -2 -81 -18 -153 -79 -343
-30 -92 -59 -199 -64 -238 -19 -159 45 -349 122 -361 63 -10 74 37 31 129 -23
50 -27 71 -26 139 1 71 8 100 66 266 113 321 124 454 50 606 -48 98 -177 195
-294 222 -67 16 -213 13 -283 -5 -63 -16 -75 -22 -261 -116 -207 -105 -340
-136 -509 -119 -215 22 -354 131 -386 302 -6 34 -18 61 -31 72 -30 25 -81 22
-107 -6z"/>
<path d="M3591 3329 c-36 -39 -34 -64 10 -162 174 -386 230 -771 155 -1072
-45 -183 -115 -322 -316 -625 -94 -144 -160 -274 -190 -380 -28 -98 -37 -292
-20 -426 22 -181 100 -439 147 -490 29 -32 73 -31 112 2 41 35 40 62 -9 208
-99 296 -116 563 -46 736 12 30 85 161 163 290 149 249 205 354 252 472 69
175 108 424 95 617 -14 220 -93 526 -184 717 -41 85 -54 104 -83 118 -46 21
-62 20 -86 -5z"/>
<path d="M2797 2570 c-135 -34 -287 -178 -287 -273 0 -43 37 -77 85 -77 34 0
57 19 93 80 45 76 116 120 193 120 139 0 193 -169 133 -415 -35 -140 -87 -246
-157 -315 -58 -59 -97 -75 -140 -56 -38 15 -77 71 -77 108 0 73 -96 107 -140
51 -18 -23 -21 -36 -16 -71 12 -88 74 -191 140 -231 20 -13 59 -23 103 -27 90
-8 144 14 218 92 247 257 323 727 151 931 -57 68 -200 108 -299 83z"/>
</g>
</svg>
