<?xml version="1.0" standalone="no"?>
<!DOCTYPE svg PUBLIC "-//W3C//DTD SVG 20010904//EN"
 "http://www.w3.org/TR/2001/REC-SVG-20010904/DTD/svg10.dtd">
<svg version="1.0" xmlns="http://www.w3.org/2000/svg"
 width="480.000000pt" height="480.000000pt" viewBox="0 0 480.000000 480.000000"
 preserveAspectRatio="xMidYMid meet">

<g transform="translate(0.000000,480.000000) scale(0.100000,-0.100000)"
fill="#000000" stroke="none">
<path d="M1515 4637 c-237 -188 -375 -430 -415 -725 -17 -122 -7 -358 19 -472
10 -47 17 -87 15 -89 -2 -2 -15 4 -29 13 -30 20 -82 99 -113 173 -26 61 -74
246 -93 353 l-13 75 -13 -55 c-24 -95 -28 -332 -9 -448 38 -225 125 -414 270
-585 l58 -68 -36 -79 c-41 -89 -76 -223 -76 -288 0 -25 13 -75 30 -119 17 -41
30 -89 30 -106 0 -59 -31 -161 -95 -323 -73 -183 -80 -229 -41 -269 25 -25 82
-45 129 -45 25 0 27 -3 21 -22 -12 -38 -7 -117 9 -141 9 -13 29 -30 46 -37 29
-11 30 -14 16 -33 -21 -31 -19 -90 5 -120 11 -14 36 -35 54 -47 34 -21 35 -21
20 -55 -8 -19 -14 -65 -14 -103 0 -94 33 -161 98 -200 93 -54 289 -29 464 59
32 16 66 29 77 29 26 0 114 -81 165 -154 87 -121 177 -330 237 -544 19 -67 38
-122 43 -122 5 0 73 29 150 64 78 35 362 164 631 286 270 122 494 226 499 231
6 5 -17 65 -56 146 -74 155 -154 362 -194 502 -23 82 -26 106 -22 195 6 124
30 199 135 421 180 381 213 467 239 619 27 154 -8 299 -101 426 -25 34 -35 58
-35 85 0 20 25 110 55 200 34 101 55 178 55 206 l-1 44 -37 -70 c-46 -86 -115
-190 -119 -179 -1 5 -7 74 -13 154 -13 185 -35 312 -64 375 l-23 50 4 -190 c3
-184 3 -189 -13 -155 -10 19 -45 94 -79 165 -60 125 -140 247 -170 258 -8 4 1
-17 20 -48 19 -29 45 -86 59 -127 24 -72 39 -169 27 -167 -3 0 -25 30 -49 67
-90 141 -220 270 -327 324 -64 33 -144 58 -185 58 -20 0 -13 -8 40 -44 36 -23
92 -72 125 -107 59 -63 123 -165 111 -176 -9 -9 -232 34 -428 83 -580 145
-898 343 -934 581 -5 38 5 112 21 156 12 30 -19 20 -60 -20 -21 -20 -49 -60
-62 -89 -48 -105 -93 -335 -93 -476 0 -32 -4 -58 -10 -58 -5 0 -20 33 -32 73
-30 95 -32 297 -4 397 23 80 81 204 135 288 22 34 37 62 33 62 -4 0 -43 -28
-87 -63z"/>
</g>
</svg>
