<?xml version="1.0" standalone="no"?>
<!DOCTYPE svg PUBLIC "-//W3C//DTD SVG 20010904//EN"
 "http://www.w3.org/TR/2001/REC-SVG-20010904/DTD/svg10.dtd">
<svg version="1.0" xmlns="http://www.w3.org/2000/svg"
 width="512.000000pt" height="512.000000pt" viewBox="0 0 512.000000 512.000000"
 preserveAspectRatio="xMidYMid meet">

<g transform="translate(0.000000,512.000000) scale(0.100000,-0.100000)"
fill="#000000" stroke="none">
<path d="M3443 5096 c-27 -23 -28 -28 -31 -130 l-4 -106 -369 0 c-235 0 -387
-4 -417 -11 -128 -30 -364 -176 -509 -315 l-63 -60 0 -245 c0 -234 1 -248 21
-273 16 -20 29 -26 60 -26 35 0 48 8 131 86 135 125 293 250 373 295 l70 39
353 0 352 0 0 -85 0 -85 -229 0 -229 0 -26 -31 -26 -31 0 -271 0 -272 -58 -17
c-161 -47 -296 -202 -349 -399 -15 -58 -17 -163 -20 -1194 l-4 -1131 -32 4
c-31 3 -184 -19 -217 -32 -11 -4 -24 13 -49 64 -62 130 -209 241 -386 292 -69
20 -102 23 -245 23 -161 0 -167 -1 -248 -32 -159 -61 -302 -182 -372 -315 -18
-35 -35 -65 -36 -67 -2 -2 -25 7 -51 21 -78 42 -148 58 -252 58 -291 -1 -457
-122 -535 -392 -26 -90 -46 -236 -46 -338 0 -55 3 -65 29 -91 l29 -29 2336 0
c1671 0 2350 3 2388 11 160 34 297 173 328 334 8 44 10 430 8 1420 -3 1264 -4
1364 -21 1420 -57 196 -188 337 -348 378 l-54 14 -5 283 c-5 281 -5 282 -29
301 -22 18 -42 19 -292 19 l-268 0 -3 446 -3 446 -28 24 -28 24 -284 0 -284 0
-28 -24z m482 -531 l0 -380 -172 -3 -173 -2 0 385 0 385 173 -2 172 -3 0 -380z
m-515 40 l0 -84 -377 -3 -378 -3 -80 -43 c-86 -47 -206 -132 -297 -213 l-58
-50 0 98 0 98 68 56 c134 111 254 186 347 215 29 9 140 13 408 13 l367 1 0
-85z m1110 -810 l0 -215 -722 2 -723 3 -3 213 -2 212 725 0 725 0 0 -215z
m203 -401 c62 -21 140 -92 172 -157 25 -53 55 -169 55 -219 l0 -28 -1150 0
-1150 0 0 43 c0 59 26 153 56 205 41 70 82 109 146 142 l61 30 882 0 c780 0
887 -2 928 -16z m227 -1559 l0 -985 -1150 0 -1150 0 0 985 0 985 1150 0 1150
0 0 -985z m-3237 -834 c112 -29 185 -67 249 -131 58 -58 88 -124 88 -192 0
-36 40 -78 74 -78 14 0 67 14 118 31 186 63 323 38 408 -75 65 -86 92 -164 98
-283 l5 -103 -1292 0 -1292 0 6 53 c21 181 58 288 124 360 61 66 123 89 251
95 136 5 190 -13 282 -98 74 -67 103 -78 146 -56 34 18 37 25 51 112 13 83 45
146 108 214 108 117 230 169 399 170 68 0 125 -6 177 -19z m3235 -483 c-3
-144 -6 -168 -25 -203 -25 -47 -74 -95 -123 -121 -33 -18 -80 -19 -956 -22
l-921 -2 -5 107 c-7 129 -41 243 -100 334 -21 33 -38 62 -38 64 0 3 489 5
1086 5 l1086 0 -4 -162z"/>
<path d="M4133 2639 c-56 -10 -91 -30 -135 -76 -49 -51 -68 -99 -68 -175 1
-146 109 -253 255 -252 142 1 248 109 249 254 0 160 -143 279 -301 249z m97
-179 c10 -5 24 -25 30 -44 15 -45 -7 -89 -50 -104 -82 -29 -147 72 -88 135 23
25 74 31 108 13z"/>
<path d="M3219 2456 c-94 -33 -175 -113 -210 -205 -17 -45 -20 -71 -17 -136 5
-81 23 -132 71 -197 57 -77 201 -136 302 -123 116 14 222 92 271 198 24 52 29
75 29 142 -1 66 -6 91 -28 140 -36 76 -110 147 -183 175 -64 23 -178 27 -235
6z m188 -173 c73 -34 109 -129 79 -208 -43 -112 -179 -147 -266 -68 -49 43
-64 81 -58 144 12 118 135 185 245 132z"/>
<path d="M4055 1942 c-77 -26 -138 -66 -188 -122 -213 -237 -100 -614 208
-694 153 -40 305 4 416 121 256 270 60 714 -315 713 -41 -1 -92 -8 -121 -18z
m209 -164 c63 -19 140 -100 160 -167 20 -67 20 -84 1 -147 -52 -175 -267 -239
-409 -122 -76 63 -109 199 -71 291 50 121 188 184 319 145z"/>
<path d="M3185 485 c-17 -16 -25 -35 -25 -57 1 -70 38 -88 175 -88 104 0 107
1 136 29 31 31 36 59 17 94 -22 42 -38 46 -161 47 -112 0 -119 -1 -142 -25z"/>
<path d="M3695 485 c-35 -34 -33 -78 4 -116 l29 -29 497 0 497 0 29 29 c31 31
36 59 17 94 -25 47 -15 46 -546 47 l-503 0 -24 -25z"/>
<path d="M1626 3876 c-93 -100 -218 -334 -246 -457 -18 -82 -9 -240 19 -310
61 -158 222 -238 391 -195 113 29 177 88 221 205 29 78 36 215 15 305 -22 92
-82 218 -161 336 -90 136 -114 160 -161 160 -32 0 -44 -7 -78 -44z m152 -298
c72 -128 96 -210 89 -308 -9 -141 -66 -205 -175 -197 -60 4 -97 27 -127 78
-17 28 -20 52 -20 144 l0 110 47 98 c26 54 62 118 79 143 37 55 36 56 107 -68z"/>
<path d="M868 3208 c-48 -52 -155 -219 -197 -309 -51 -108 -71 -189 -71 -280
1 -185 68 -313 195 -371 72 -33 208 -33 283 1 67 30 134 104 163 179 30 79 37
234 15 321 -32 123 -164 363 -254 459 -42 45 -92 45 -134 0z m140 -310 c73
-129 96 -209 90 -312 -6 -88 -20 -126 -63 -166 -23 -22 -36 -25 -100 -25 -68
0 -76 2 -105 30 -69 66 -79 228 -22 363 16 40 52 107 77 148 55 88 50 90 123
-38z"/>
<path d="M1662 2546 c-32 -17 -140 -171 -196 -276 -24 -47 -57 -121 -71 -165
-25 -73 -27 -90 -22 -195 5 -130 21 -184 77 -258 52 -68 131 -106 231 -111
103 -4 172 16 233 70 61 53 93 111 111 195 41 191 -9 364 -174 611 -90 135
-130 162 -189 129z m138 -377 c57 -111 74 -178 67 -266 -10 -138 -57 -193
-164 -193 -111 0 -154 53 -161 201 -6 119 22 200 121 357 l40 63 29 -43 c16
-24 47 -77 68 -119z"/>
</g>
</svg>
