<?xml version="1.0" standalone="no"?>
<!DOCTYPE svg PUBLIC "-//W3C//DTD SVG 20010904//EN"
 "http://www.w3.org/TR/2001/REC-SVG-20010904/DTD/svg10.dtd">
<svg version="1.0" xmlns="http://www.w3.org/2000/svg"
 width="512.000000pt" height="512.000000pt" viewBox="0 0 512.000000 512.000000"
 preserveAspectRatio="xMidYMid meet">

<g transform="translate(0.000000,512.000000) scale(0.100000,-0.100000)"
fill="#000000" stroke="none">
<path d="M2492 4597 c-22 -23 -29 -68 -16 -102 12 -31 59 -45 151 -45 48 0
145 -7 215 -15 340 -40 555 -119 893 -329 202 -125 265 -183 265 -244 0 -34
-33 -92 -77 -134 l-38 -36 -54 10 c-101 21 -272 -18 -455 -101 -149 -68 -265
-179 -300 -289 -8 -26 -20 -83 -26 -127 -17 -119 -17 -118 -91 -218 -72 -96
-170 -277 -209 -385 -18 -50 -26 -62 -39 -56 -48 20 -109 34 -148 34 l-43 0 0
50 c0 146 -65 317 -150 394 -69 61 -128 79 -240 74 -73 -3 -98 -9 -152 -36
-124 -61 -204 -175 -244 -347 -23 -98 -26 -354 -6 -486 l14 -86 -35 -89 c-70
-182 -137 -286 -229 -362 l-53 -42 -28 32 c-59 70 -152 219 -217 351 -209 421
-262 868 -159 1346 104 479 377 802 827 976 100 39 131 81 100 138 -35 66 -92
61 -282 -26 -409 -190 -680 -523 -795 -982 -57 -227 -65 -298 -65 -570 0 -266
6 -325 60 -537 73 -291 237 -614 424 -835 33 -40 67 -73 75 -73 7 0 21 -7 29
-16 29 -28 19 -141 -44 -511 -56 -328 -59 -355 -46 -382 26 -50 96 -59 135
-17 18 19 31 78 81 372 61 354 71 468 51 572 l-8 43 76 78 c110 112 199 273
259 471 18 61 19 70 5 150 -22 124 -22 378 0 457 45 168 125 243 259 243 88 0
144 -66 173 -205 8 -38 15 -102 15 -141 0 -68 -2 -73 -35 -109 -20 -20 -48
-60 -63 -89 -24 -46 -27 -62 -27 -151 0 -108 16 -157 72 -216 22 -25 23 -29
12 -72 -25 -101 26 -219 118 -272 40 -23 53 -37 57 -61 4 -17 17 -53 30 -78
21 -42 23 -57 19 -127 -16 -234 144 -428 374 -454 l60 -7 19 -67 c17 -60 18
-76 8 -176 -14 -129 -4 -169 43 -182 61 -16 109 16 119 78 l6 37 42 -19 c58
-26 101 -24 131 6 47 46 27 109 -48 146 -94 48 -135 111 -147 232 -7 74 -11
84 -40 110 -30 27 -36 28 -84 21 -114 -18 -184 3 -249 76 -68 75 -75 115 -51
280 5 29 -1 47 -27 89 -25 40 -35 69 -40 119 -8 76 -26 98 -90 108 -39 7 -72
34 -83 70 -4 13 3 38 19 68 37 70 34 90 -30 150 -59 57 -75 88 -75 142 0 107
111 195 210 165 79 -23 130 -90 130 -168 0 -76 48 -110 129 -91 78 18 114 5
182 -64 65 -66 59 -65 168 -34 42 12 64 13 100 5 55 -12 77 -26 131 -80 45
-46 55 -47 176 -14 57 16 65 16 118 1 66 -19 127 -70 157 -129 11 -21 24 -71
28 -110 6 -61 11 -73 35 -91 83 -63 117 -116 142 -223 21 -89 13 -156 -31
-251 -42 -90 -76 -137 -119 -163 -25 -16 -42 -18 -93 -13 -57 6 -63 5 -87 -19
-49 -49 -22 -126 52 -147 105 -29 192 -2 283 89 73 73 136 188 165 303 42 163
-21 392 -140 507 -20 19 -36 43 -36 52 0 37 -41 148 -70 187 -16 23 -30 44
-30 47 0 3 37 5 83 5 45 0 99 5 119 10 44 13 93 52 113 91 31 58 20 101 -105
438 l-120 322 0 186 c0 192 -15 330 -50 467 l-19 73 49 52 c75 80 105 149 105
241 0 150 -67 227 -346 397 -306 186 -495 266 -749 317 -163 32 -292 46 -438
46 -111 0 -120 -1 -140 -23z m1351 -1076 c5 -5 20 -62 33 -127 21 -99 27 -161
33 -369 l8 -250 115 -305 115 -305 -176 -5 c-155 -4 -181 -8 -206 -25 -21 -14
-43 -19 -75 -17 -25 2 -69 -2 -98 -7 -49 -10 -56 -9 -85 13 -87 65 -207 97
-298 79 -52 -11 -55 -10 -88 19 -46 41 -111 68 -174 75 -50 5 -53 7 -69 45
-17 39 -17 41 13 126 60 170 139 316 238 442 50 63 76 132 90 240 15 111 47
178 109 223 89 65 259 138 366 156 53 10 135 5 149 -8z"/>
<path d="M2146 4569 c-34 -40 -33 -74 3 -110 57 -56 141 -23 141 56 0 80 -93
115 -144 54z"/>
<path d="M3535 1578 c-38 -5 -155 -19 -259 -32 -169 -21 -192 -26 -208 -46
-28 -35 -24 -94 10 -120 25 -20 34 -22 117 -15 50 4 94 8 99 8 5 1 41 -162 82
-363 98 -489 93 -469 115 -491 28 -28 89 -25 118 5 13 14 24 35 24 48 1 13
-34 202 -78 420 -44 218 -77 399 -75 401 3 3 46 10 95 16 77 9 93 14 113 36
33 39 30 87 -9 119 -33 28 -37 28 -144 14z"/>
</g>
</svg>
