<?xml version="1.0" standalone="no"?>
<!DOCTYPE svg PUBLIC "-//W3C//DTD SVG 20010904//EN"
 "http://www.w3.org/TR/2001/REC-SVG-20010904/DTD/svg10.dtd">
<svg version="1.0" xmlns="http://www.w3.org/2000/svg"
 width="512.000000pt" height="512.000000pt" viewBox="0 0 512.000000 512.000000"
 preserveAspectRatio="xMidYMid meet">

<g transform="translate(0.000000,512.000000) scale(0.100000,-0.100000)"
fill="#000000" stroke="none">
<path d="M969 5073 c-78 -48 -77 -160 1 -207 22 -12 55 -16 144 -16 l116 0 0
-99 0 -98 -60 -22 c-155 -57 -280 -192 -328 -356 -10 -34 -16 -119 -19 -266
l-5 -216 -217 -6 c-183 -4 -225 -8 -273 -25 -164 -59 -279 -188 -314 -351 -20
-96 -21 -3045 -1 -3094 18 -42 81 -98 148 -130 115 -56 318 -99 624 -134 218
-25 925 -25 1145 1 294 33 493 74 605 125 73 33 143 93 162 138 11 27 13 297
13 1531 0 978 -4 1518 -10 1553 -31 163 -152 302 -316 360 -51 18 -89 22 -276
26 l-218 6 0 181 c0 99 -4 208 -10 241 -30 189 -162 351 -340 416 l-60 22 0
98 0 99 295 0 c320 0 334 2 369 54 21 32 21 100 0 132 -36 55 -29 54 -611 54
-480 -1 -541 -2 -564 -17z m484 -669 c57 -19 131 -83 160 -138 20 -38 22 -57
25 -258 l3 -218 -285 0 -286 0 0 198 c0 224 8 262 67 331 77 90 202 124 316
85z m886 -890 c64 -32 106 -87 121 -158 6 -29 9 -113 8 -187 l-3 -134 -59 -23
c-197 -78 -736 -131 -1196 -118 -428 13 -778 61 -927 126 l-43 19 0 129 c0 71
4 153 10 181 14 73 58 133 122 165 l52 26 931 0 931 0 53 -26z m-2017 -764
c98 -27 271 -55 464 -77 127 -14 242 -18 569 -18 327 0 442 4 569 18 193 22
366 50 464 77 40 11 74 20 77 20 3 0 5 -380 5 -845 l0 -844 -27 -14 c-91 -47
-352 -93 -653 -117 -178 -14 -676 -14 -865 0 -276 21 -571 73 -657 117 l-28
14 0 844 c0 465 2 845 5 845 3 0 37 -9 77 -20z m10 -1960 c481 -131 1562 -131
2046 0 40 11 77 20 82 20 7 0 9 -69 8 -197 l-3 -198 -59 -23 c-139 -55 -423
-96 -804 -114 -487 -24 -1084 29 -1298 114 l-59 23 -3 198 c-1 128 1 197 8
197 5 0 42 -9 82 -20z"/>
<path d="M1237 2410 c-268 -85 -363 -407 -187 -630 37 -47 118 -101 184 -123
92 -31 238 -17 313 29 142 90 208 210 201 367 -2 66 -9 95 -34 147 -86 181
-289 270 -477 210z m195 -246 c90 -46 102 -173 23 -243 -65 -57 -157 -51 -214
14 -39 45 -48 93 -27 149 20 52 42 73 93 92 40 14 81 10 125 -12z"/>
<path d="M940 1418 c-32 -19 -60 -65 -60 -98 0 -37 29 -85 63 -105 30 -19 53
-20 412 -20 355 0 382 1 411 19 84 50 83 163 -1 209 -14 7 -144 11 -408 12
-354 1 -391 -1 -417 -17z"/>
<path d="M2575 5071 c-82 -50 -205 -213 -272 -359 -75 -164 -96 -346 -55 -478
66 -212 262 -333 469 -290 85 17 146 51 206 112 170 172 168 458 -4 760 -49
87 -158 217 -208 251 -41 28 -95 30 -136 4z m102 -329 c83 -125 127 -248 127
-353 0 -89 -27 -148 -84 -187 -29 -20 -45 -23 -90 -20 -65 5 -99 26 -131 82
-60 107 -21 298 99 474 19 28 38 52 41 52 3 0 20 -22 38 -48z"/>
<path d="M3110 3051 c-58 -4 -115 -12 -127 -19 -61 -34 -83 -124 -41 -177 39
-49 62 -53 308 -46 512 15 1054 -22 1370 -95 92 -21 200 -55 200 -64 0 -17
-249 -78 -430 -104 -286 -42 -416 -50 -906 -52 -305 -1 -488 -5 -500 -12 -78
-42 -84 -152 -11 -204 28 -20 50 -23 241 -31 505 -23 1188 30 1521 119 55 14
110 28 123 31 22 5 22 4 22 -91 0 -109 1 -108 -100 -145 -270 -100 -910 -159
-1530 -140 -239 7 -266 3 -304 -39 -10 -12 -21 -41 -23 -66 -4 -35 -1 -51 17
-76 40 -56 62 -60 388 -67 585 -11 1158 42 1471 138 35 10 67 19 72 19 5 0 9
-248 9 -585 l0 -585 -39 -20 c-213 -108 -854 -179 -1510 -167 -361 7 -365 6
-396 -59 -30 -63 -14 -121 43 -156 32 -20 53 -22 266 -27 292 -8 685 3 902 23
542 52 852 143 941 277 l28 43 3 1005 2 1006 -22 45 c-74 146 -360 240 -893
294 -324 33 -789 44 -1095 27z"/>
<path d="M3624 1580 c-122 -18 -242 -108 -300 -225 -26 -55 -29 -69 -29 -165
0 -97 2 -110 31 -170 96 -200 336 -285 531 -188 268 133 300 498 59 675 -83
61 -189 88 -292 73z m136 -262 c53 -37 74 -72 74 -125 -1 -91 -61 -154 -148
-155 -118 -2 -192 120 -135 222 43 76 142 103 209 58z"/>
</g>
</svg>
