<?xml version="1.0" standalone="no"?>
<!DOCTYPE svg PUBLIC "-//W3C//DTD SVG 20010904//EN"
 "http://www.w3.org/TR/2001/REC-SVG-20010904/DTD/svg10.dtd">
<svg version="1.0" xmlns="http://www.w3.org/2000/svg"
 width="512.000000pt" height="512.000000pt" viewBox="0 0 512.000000 512.000000"
 preserveAspectRatio="xMidYMid meet">

<g transform="translate(0.000000,512.000000) scale(0.100000,-0.100000)"
fill="#000000" stroke="none">
<path d="M2245 5109 c-92 -13 -221 -56 -317 -106 -249 -128 -437 -351 -521
-618 -38 -121 -47 -212 -47 -476 0 -195 -2 -239 -14 -239 -7 0 -45 -16 -83
-35 -86 -43 -144 -103 -186 -193 -29 -61 -32 -76 -32 -162 0 -86 3 -102 31
-161 31 -64 82 -126 138 -165 l28 -21 -34 -44 c-62 -83 -82 -142 -83 -249 0
-83 4 -103 27 -153 l28 -59 -39 -64 c-21 -35 -51 -103 -67 -151 l-29 -88 0
-285 1 -285 53 -175 c61 -202 75 -329 49 -430 -8 -30 -84 -220 -168 -422
l-153 -368 -175 0 -175 0 6 113 c6 120 30 226 72 321 72 163 208 314 361 403
113 66 124 76 124 116 0 42 -35 77 -76 77 -35 0 -155 -64 -233 -124 -74 -57
-186 -177 -234 -249 -59 -88 -116 -217 -144 -325 -20 -79 -26 -129 -30 -269
l-6 -171 26 -26 26 -26 2191 0 2191 0 26 26 25 26 -5 171 c-4 141 -9 190 -31
272 -59 229 -202 440 -396 586 -70 52 -182 109 -215 109 -35 0 -75 -42 -75
-78 0 -37 16 -52 124 -115 259 -151 417 -415 433 -724 l6 -113 -175 0 -175 0
-156 378 c-87 207 -162 402 -168 432 -21 100 -6 217 52 410 l53 175 1 285 0
285 -29 88 c-16 48 -46 116 -67 151 l-39 64 28 59 c23 50 27 70 27 153 -1 107
-21 166 -84 249 l-34 45 24 15 c50 31 112 106 143 170 28 60 31 75 31 161 0
86 -3 101 -32 162 -42 90 -100 150 -186 193 -38 19 -76 35 -83 35 -12 0 -14
44 -14 239 0 263 -9 355 -47 476 -102 325 -362 585 -688 688 -45 14 -116 30
-159 36 -90 13 -533 13 -621 0z m690 -176 c324 -92 545 -313 638 -638 18 -63
21 -107 24 -422 l5 -353 -100 0 c-117 0 -230 26 -309 70 -64 36 -96 38 -128 5
-28 -27 -32 -70 -10 -101 18 -26 140 -87 220 -109 34 -9 116 -19 193 -22 l132
-6 0 -157 0 -157 -52 -7 c-59 -8 -125 -34 -179 -72 -34 -23 -39 -24 -89 -13
-126 27 -283 -22 -369 -117 -87 -93 -128 -235 -102 -354 11 -50 10 -55 -13
-89 -55 -80 -70 -130 -71 -232 0 -90 2 -99 38 -171 26 -54 53 -90 89 -122 l52
-45 -26 -10 c-129 -49 -394 -60 -552 -23 -97 22 -123 19 -150 -20 -13 -19 -16
-56 -16 -231 0 -207 0 -208 -25 -232 -23 -23 -85 -36 -85 -17 0 4 -11 95 -25
202 -14 107 -25 211 -25 231 l0 37 55 7 c75 9 183 65 235 121 23 25 56 75 73
112 29 61 32 76 32 162 -1 101 -16 151 -71 231 -23 34 -24 39 -13 89 26 119
-15 261 -102 354 -86 95 -243 144 -369 117 -50 -11 -55 -10 -89 13 -54 38
-120 64 -178 72 l-53 7 0 158 0 159 420 0 c475 0 517 4 655 69 44 21 107 58
140 84 87 65 225 210 225 235 0 51 -40 92 -91 92 -13 0 -66 -44 -137 -112
-129 -125 -183 -159 -298 -188 -71 -18 -111 -20 -496 -20 l-420 0 5 353 c3
315 6 359 24 422 47 165 122 294 233 405 135 136 298 217 510 254 14 2 149 3
300 1 239 -2 284 -5 345 -22z m-1575 -1653 c0 -254 1 -252 -83 -167 -104 104
-104 230 0 335 84 84 83 86 83 -168z m2483 168 c54 -54 77 -105 77 -168 0 -63
-23 -114 -77 -167 -84 -85 -83 -87 -83 167 0 254 -1 252 83 168z m-2222 -593
c19 -10 53 -35 76 -56 48 -44 72 -48 134 -19 89 40 179 21 254 -55 76 -75 95
-165 55 -254 -29 -64 -26 -83 28 -145 71 -81 88 -155 56 -249 -20 -59 -82
-121 -141 -141 -90 -31 -83 -55 -83 280 0 204 -4 310 -12 338 -16 55 -99 138
-154 154 -119 35 -335 -15 -468 -108 -31 -22 -61 -40 -65 -40 -24 0 -27 98 -5
163 18 53 92 127 146 145 44 15 137 8 179 -13z m2087 -4 c77 -39 132 -128 132
-212 0 -43 -10 -79 -21 -79 -4 0 -34 18 -65 40 -132 92 -350 143 -468 108 -55
-16 -138 -99 -154 -154 -8 -28 -12 -134 -12 -338 0 -335 7 -311 -83 -280 -59
20 -121 82 -141 141 -32 94 -15 168 56 249 54 62 57 81 28 145 -40 89 -21 179
55 254 75 76 165 95 254 55 62 -29 86 -25 134 19 70 64 117 82 193 77 28 -3
70 -14 92 -25z m-1893 -316 l25 -24 0 -418 c0 -416 0 -419 35 -698 19 -154 35
-302 35 -330 0 -31 -40 -214 -106 -478 l-106 -427 -349 0 -349 0 16 37 c170
405 276 672 290 728 12 52 15 99 11 185 -4 102 -11 135 -58 290 l-52 175 -5
229 c-4 269 3 328 59 443 88 183 279 307 482 312 38 1 53 -4 72 -24z m1651 14
c163 -29 320 -149 393 -302 56 -115 63 -174 59 -443 l-5 -229 -52 -175 c-47
-155 -54 -188 -58 -290 -4 -86 -1 -133 11 -185 14 -56 120 -323 290 -728 l16
-37 -349 0 -349 0 -106 428 c-67 268 -106 446 -106 478 0 28 16 178 35 333 35
280 35 282 35 696 l0 416 25 24 c27 28 65 32 161 14z m-371 -1055 c-14 -111
-25 -204 -25 -207 0 -18 -63 -5 -86 18 -24 24 -24 25 -22 195 l3 171 75 32
c73 32 75 32 78 12 2 -12 -9 -111 -23 -221z m-271 -237 c35 -71 133 -137 203
-137 18 0 21 -9 26 -87 5 -62 36 -205 106 -480 l99 -393 -698 0 -698 0 99 393
c68 269 101 419 105 480 6 78 9 87 27 87 80 0 191 86 215 166 7 24 12 102 12
188 l0 147 68 -8 c86 -10 315 -8 367 4 l40 9 5 -166 c4 -134 8 -172 24 -203z"/>
<path d="M1785 3175 c-16 -15 -25 -36 -25 -55 0 -19 9 -40 25 -55 24 -25 26
-25 215 -25 189 0 191 0 215 25 16 15 25 36 25 55 0 19 -9 40 -25 55 -24 25
-26 25 -215 25 -189 0 -191 0 -215 -25z"/>
<path d="M2905 3175 c-16 -15 -25 -36 -25 -55 0 -19 9 -40 25 -55 24 -25 26
-25 215 -25 189 0 191 0 215 25 16 15 25 36 25 55 0 19 -9 40 -25 55 -24 25
-26 25 -215 25 -189 0 -191 0 -215 -25z"/>
<path d="M640 2707 c-49 -16 -133 -102 -148 -153 -28 -94 -8 -169 63 -239 101
-102 229 -102 330 0 102 101 102 229 0 330 -70 71 -152 91 -245 62z m135 -172
c16 -15 25 -36 25 -55 0 -19 -9 -40 -25 -55 -15 -16 -36 -25 -55 -25 -19 0
-40 9 -55 25 -16 15 -25 36 -25 55 0 19 9 40 25 55 15 16 36 25 55 25 19 0 40
-9 55 -25z"/>
<path d="M4480 2547 c-49 -16 -133 -102 -148 -153 -28 -94 -8 -169 63 -239 70
-71 145 -91 239 -63 55 16 138 99 154 154 28 94 8 169 -63 239 -70 71 -152 91
-245 62z m135 -172 c50 -49 15 -135 -55 -135 -41 0 -80 39 -80 80 0 41 39 80
80 80 19 0 40 -9 55 -25z"/>
<path d="M480 1907 c-49 -16 -133 -102 -148 -153 -28 -94 -8 -169 63 -239 101
-102 229 -102 330 0 102 101 102 229 0 330 -70 71 -152 91 -245 62z m135 -172
c50 -49 15 -135 -55 -135 -41 0 -80 39 -80 80 0 41 39 80 80 80 19 0 40 -9 55
-25z"/>
<path d="M4320 1747 c-49 -16 -133 -102 -148 -153 -28 -94 -8 -169 63 -239 70
-71 145 -91 239 -63 55 16 138 99 154 154 28 94 8 169 -63 239 -70 71 -152 91
-245 62z m135 -172 c50 -49 15 -135 -55 -135 -41 0 -80 39 -80 80 0 41 39 80
80 80 19 0 40 -9 55 -25z"/>
</g>
</svg>
