<?xml version="1.0" standalone="no"?>
<!DOCTYPE svg PUBLIC "-//W3C//DTD SVG 20010904//EN"
 "http://www.w3.org/TR/2001/REC-SVG-20010904/DTD/svg10.dtd">
<svg version="1.0" xmlns="http://www.w3.org/2000/svg"
 width="800.000000pt" height="800.000000pt" viewBox="0 0 800.000000 800.000000"
 preserveAspectRatio="xMidYMid meet">

<g transform="translate(0.000000,800.000000) scale(0.100000,-0.100000)"
fill="#000000" stroke="none">
<path d="M2215 6923 c-287 -37 -607 -181 -865 -390 -89 -72 -267 -254 -331
-338 -249 -326 -405 -714 -471 -1170 -20 -140 -17 -600 5 -750 63 -427 199
-805 434 -1207 78 -132 221 -343 229 -336 2 3 -1 53 -6 114 -10 112 -8 175 12
277 l11 58 44 -78 c24 -43 59 -96 78 -119 29 -35 36 -55 49 -135 41 -257 159
-520 305 -679 l41 -45 -46 69 c-56 86 -126 228 -158 323 -14 40 -24 73 -22 73
1 0 20 -25 41 -56 51 -74 160 -173 232 -211 243 -128 518 -51 604 170 l16 42
74 6 74 5 -60 2 c-33 1 -64 6 -70 10 -5 4 -11 42 -11 85 -2 133 -71 240 -193
298 -51 25 -206 38 -251 21 -17 -6 0 -8 55 -4 93 5 164 -17 237 -72 67 -51
101 -123 105 -221 2 -44 0 -86 -5 -93 -7 -11 -27 -10 -108 3 -280 45 -493 133
-671 277 -60 49 -63 53 -78 122 -31 142 -35 246 -15 343 34 161 114 345 213
486 36 51 70 78 326 249 157 106 354 246 436 312 540 432 909 984 985 1476 7
41 10 125 8 187 -3 123 0 124 28 13 29 -116 26 -299 -9 -469 -18 -91 -27 -164
-27 -231 0 -72 -3 -99 -13 -103 -8 -3 -45 -9 -83 -13 l-69 -8 60 -8 c33 -4 71
-5 85 -2 23 4 28 -2 54 -57 17 -38 46 -77 74 -103 112 -101 122 -113 122 -144
0 -24 -8 -38 -37 -59 -95 -72 -103 -98 -53 -173 16 -25 30 -55 30 -67 0 -37
-40 -74 -88 -80 -23 -3 -42 -8 -42 -12 0 -3 13 -13 29 -23 19 -11 33 -29 40
-53 13 -50 -6 -88 -59 -115 -73 -37 -78 -56 -54 -223 6 -45 5 -49 -29 -81 -44
-42 -100 -57 -237 -63 -117 -6 -281 14 -389 47 -78 23 -94 19 -19 -5 29 -10
56 -20 60 -22 4 -2 -10 -40 -32 -83 -55 -109 -114 -259 -154 -393 -35 -117
-77 -294 -75 -324 0 -10 11 28 24 83 46 199 149 471 242 641 34 62 37 65 67
59 121 -22 262 -29 356 -19 122 14 176 39 204 97 17 35 18 46 8 96 -7 31 -12
73 -12 94 0 31 5 40 31 54 92 50 122 105 96 179 -13 40 -13 43 4 48 33 11 59
55 59 99 0 31 -8 53 -31 84 -38 51 -33 71 27 112 51 36 64 56 64 102 0 42 -30
85 -96 137 -56 43 -87 81 -109 135 l-15 34 42 7 c23 4 58 13 78 20 35 13 35
13 -20 9 l-55 -5 40 21 c22 11 32 18 21 15 -67 -19 -108 -27 -113 -21 -15 14
-3 192 21 329 41 231 31 385 -34 557 -16 41 -38 108 -50 148 -12 40 -39 108
-61 149 -21 42 -38 77 -36 79 1 1 24 -9 51 -22 124 -60 243 -188 323 -348 26
-52 86 -211 138 -372 95 -289 145 -404 220 -510 84 -117 224 -224 345 -262 37
-12 89 -17 160 -17 97 0 110 3 173 32 89 42 168 121 209 210 40 84 50 207 25
294 -9 29 -14 55 -12 57 7 8 91 -53 135 -98 50 -52 110 -158 130 -232 8 -29
11 -84 8 -145 -4 -95 -18 -144 -84 -290 -8 -17 123 28 172 60 41 26 89 74 118
117 l16 25 -6 -35 c-11 -66 -25 -98 -65 -155 -28 -40 -35 -55 -22 -50 65 26
296 101 389 125 240 62 462 86 669 70 540 -41 948 -331 1082 -767 24 -79 27
-104 27 -238 0 -138 -2 -157 -28 -235 -73 -222 -237 -414 -505 -591 -74 -49
-136 -87 -138 -85 -3 2 3 26 12 53 85 251 1 541 -207 712 -171 139 -400 209
-648 197 -296 -14 -540 -108 -958 -368 -62 -39 -111 -72 -109 -74 1 -2 47 -10
102 -19 171 -28 249 -66 338 -165 94 -105 132 -243 103 -379 -18 -84 -23 -94
-38 -66 -23 43 -113 118 -176 148 -64 31 -73 32 -187 32 -104 -1 -129 -4 -187
-27 -105 -40 -206 -102 -314 -194 -54 -46 -142 -120 -194 -165 -157 -133 -333
-240 -505 -304 l-65 -25 0 83 0 82 -30 -47 c-17 -26 -47 -60 -68 -76 -34 -24
-38 -30 -29 -50 6 -12 8 -24 6 -26 -7 -7 -204 -46 -231 -46 -19 0 -15 5 25 34
26 19 73 44 105 56 130 49 128 47 257 238 66 97 120 184 119 193 0 11 5 15 15
11 11 -4 13 -1 7 13 -4 11 -4 16 0 12 13 -12 34 26 22 41 -8 10 -7 11 7 5 14
-5 17 -3 12 10 -4 12 -2 14 10 10 12 -5 15 -2 10 10 -3 9 -3 16 1 14 4 -1 8 1
9 6 2 4 14 19 28 33 15 15 24 33 21 41 -3 8 -1 11 4 8 12 -8 64 71 55 84 -4 7
0 8 11 4 13 -5 16 -3 11 10 -3 9 -2 16 2 14 5 -1 21 16 36 38 15 22 47 67 70
100 23 33 68 98 100 145 32 47 130 188 218 314 223 321 275 400 314 485 18 40
32 75 30 77 -1 2 -39 -43 -82 -99 -690 -885 -1501 -1906 -1523 -1915 -43 -18
-362 -1 -457 24 -18 4 -18 4 -3 -6 33 -20 203 -52 317 -58 l114 -7 -118 -145
c-65 -80 -123 -148 -129 -152 -20 -14 -63 -8 -79 10 -9 10 -25 47 -37 83 -47
154 -192 243 -356 219 -229 -32 -415 -224 -454 -465 -27 -169 57 -332 198
-386 47 -17 73 -20 149 -17 83 4 99 8 176 46 102 50 149 98 354 357 78 99 191
241 250 315 l108 134 130 17 c72 9 146 19 166 23 35 7 37 6 50 -26 16 -41 20
-348 8 -628 -5 -107 -10 -332 -12 -500 -2 -282 -4 -311 -25 -389 -25 -92 -73
-205 -99 -233 -9 -10 -13 -21 -9 -25 22 -22 163 201 181 287 4 19 12 41 17 48
18 22 65 13 118 -23 67 -45 119 -58 206 -53 89 6 156 40 229 120 162 175 180
471 39 675 -43 62 -128 128 -188 145 -98 27 -209 5 -290 -57 -40 -31 -69 -32
-98 -3 -21 21 -21 23 -14 331 4 171 10 323 13 337 4 24 16 31 86 55 234 80
392 175 652 390 61 50 133 107 161 127 65 48 211 118 243 118 35 0 127 -44
176 -84 23 -19 54 -60 70 -92 57 -113 34 -264 -56 -353 -76 -76 -191 -101
-276 -60 -109 53 -142 168 -77 265 17 24 20 33 9 24 -52 -43 -69 -153 -35
-219 73 -145 287 -162 415 -34 146 146 147 367 3 517 -26 27 -47 51 -45 52 7
7 125 -49 156 -74 20 -16 50 -55 66 -87 27 -53 30 -68 30 -152 0 -51 3 -93 7
-93 18 0 94 105 133 185 56 114 75 191 75 297 0 163 -56 294 -174 405 -39 38
-92 79 -119 93 -26 14 -47 27 -47 30 0 3 28 22 63 42 42 25 92 43 157 56 290
61 559 68 705 18 243 -83 406 -262 408 -448 3 -182 -112 -313 -273 -312 -75 1
-137 24 -192 73 -83 72 -102 189 -42 253 26 27 27 29 6 18 -25 -12 -61 -81
-62 -116 -1 -88 74 -195 168 -240 123 -58 251 -40 349 49 84 78 123 171 123
300 0 127 -54 243 -169 358 -82 82 -177 144 -293 190 l-73 29 50 -6 c83 -11
216 -53 290 -92 91 -48 203 -158 243 -237 46 -93 62 -158 62 -260 0 -144 -35
-239 -123 -332 -46 -49 -48 -53 -25 -53 45 0 178 40 265 80 130 60 246 143
357 254 223 223 319 432 318 691 -1 374 -232 723 -602 910 -373 188 -827 214
-1359 77 l-111 -29 7 36 c18 84 -1 172 -49 227 -36 41 -48 43 -48 8 0 -49 -23
-105 -61 -147 l-37 -42 5 107 c10 195 -43 337 -176 468 -112 111 -214 158
-381 175 l-65 6 46 -43 c81 -76 129 -187 129 -299 0 -220 -219 -377 -436 -314
-70 20 -155 64 -204 105 l-35 30 60 -24 c166 -66 314 -53 422 38 44 37 83 119
83 175 -1 83 -54 165 -127 197 -69 30 -181 7 -229 -48 -15 -17 -10 -15 24 7
119 78 267 17 280 -115 6 -67 -2 -94 -44 -140 -122 -135 -371 -78 -570 132
-111 116 -156 196 -235 425 -82 236 -175 398 -296 514 -76 74 -133 110 -217
139 -44 15 -68 32 -107 74 -139 153 -397 280 -651 321 -85 14 -314 18 -393 8z
m435 -47 c242 -37 469 -149 603 -297 63 -69 124 -180 157 -284 32 -99 39 -309
16 -426 -99 -490 -542 -1073 -1197 -1575 -79 -60 -169 -127 -199 -148 l-55
-38 65 62 c36 34 146 132 245 219 98 86 231 203 294 260 378 345 584 699 668
1146 18 96 28 432 15 495 -9 41 -10 36 -11 -52 -3 -277 -83 -596 -213 -851
-149 -291 -320 -479 -828 -912 -304 -259 -478 -442 -598 -630 -25 -38 -72 -98
-104 -133 -74 -80 -156 -190 -198 -264 -17 -32 -34 -58 -37 -58 -3 0 -3 57 0
128 5 144 24 217 89 347 113 226 303 425 613 641 55 39 170 119 255 179 201
140 334 250 443 364 111 118 177 210 238 336 55 113 65 150 16 60 -74 -137
-169 -253 -312 -383 -112 -101 -243 -197 -491 -356 -361 -232 -518 -354 -650
-505 -167 -189 -264 -388 -293 -595 -15 -109 -14 -154 9 -268 l21 -101 -21
-87 c-12 -55 -20 -123 -20 -181 l0 -94 -20 25 c-63 82 -220 385 -283 546 -116
296 -189 600 -218 907 -15 163 -7 525 16 667 85 540 316 1008 661 1341 412
396 886 581 1324 515z m3311 -2929 c-10 -9 -11 -8 -5 6 3 10 9 15 12 12 3 -3
0 -11 -7 -18z m-4501 -412 c-32 -96 -57 -209 -65 -305 -3 -36 -8 -81 -11 -100
l-6 -35 -28 55 c-15 30 -36 80 -45 112 -16 49 -16 61 -5 89 24 56 170 269 186
269 1 0 -10 -38 -26 -85z m157 -791 c154 -105 417 -187 645 -201 54 -3 98 -8
98 -10 0 -20 -48 -89 -86 -122 -63 -55 -131 -75 -238 -69 -184 10 -339 141
-440 371 -14 31 -24 57 -21 57 2 0 21 -12 42 -26z m2209 -41 c9 -35 -7 -58
-42 -58 -22 0 -31 6 -38 27 -12 35 6 58 45 58 23 0 30 -6 35 -27z m-1061 -494
c53 -15 129 -91 144 -144 56 -202 -110 -474 -329 -539 -103 -31 -184 -16 -255
46 -61 53 -79 105 -73 210 6 107 46 193 132 282 121 124 262 178 381 145z
m1421 -584 c59 -17 125 -70 159 -128 51 -88 68 -236 40 -355 -74 -315 -386
-366 -518 -84 -95 202 0 513 172 566 60 19 87 19 147 1z"/>
<path d="M3790 2705 c0 -17 -2 -18 -10 -5 -9 13 -11 13 -19 1 -22 -34 23 -57
49 -25 11 12 10 18 -3 32 -16 15 -17 15 -17 -3z"/>
<path d="M3887 4570 c-32 -180 -86 -622 -157 -1285 -27 -258 -53 -492 -56
-519 -4 -29 -3 -46 3 -43 5 3 46 52 90 109 l80 103 12 305 c6 168 16 393 21
500 26 548 41 919 38 950 -2 23 -13 -18 -31 -120z"/>
</g>
</svg>
