<svg id="icon" height="512" viewBox="0 0 128 128" width="512" xmlns="http://www.w3.org/2000/svg"><path d="m98.874 93.234h-69.748a6.117 6.117 0 0 1 -5.248-9.259l34.874-58.235a6.117 6.117 0 0 1 10.5 0l34.874 58.235a6.117 6.117 0 0 1 -5.252 9.259z" fill="#ef5261"/><path d="m29.126 88.234a1.117 1.117 0 0 1 -.958-1.69l34.874-58.235a1.117 1.117 0 0 1 1.917 0l34.873 58.235a1.117 1.117 0 0 1 -.958 1.69z" fill="#eeefee"/><path d="m66.174 56.265-.827 16.626h-2.694l-.827-16.626v-6.723h4.347zm0 24.367h-4.348v-4.347h4.347z" fill="#ef5261"/></svg>