<?xml version="1.0"?>
<svg xmlns="http://www.w3.org/2000/svg" xmlns:xlink="http://www.w3.org/1999/xlink" xmlns:svgjs="http://svgjs.com/svgjs" version="1.1" width="512" height="512" x="0" y="0" viewBox="0 0 256 256" style="enable-background:new 0 0 512 512" xml:space="preserve" class=""><g transform="matrix(0.4899999999999999,0,0,0.4899999999999999,65.28052042007451,65.28000291824341)">
<style xmlns="http://www.w3.org/2000/svg" type="text/css">
	.st0{fill:#F9CFCF;}
	.st1{fill:#3762CC;}
	.st2{fill:#F9A7A7;}
	.st3{fill:#E0EBFC;}
	.st4{fill:#4671C6;}
	.st5{fill:#6BDDDD;}
	.st6{fill:#FFEA92;}
	.st7{fill:#A4C9FF;}
	.st8{fill:#EAA97D;}
	.st9{fill:#B9BEFC;}
</style>
<g xmlns="http://www.w3.org/2000/svg">
	<g>
		<g>
			<path class="st0" d="M188.303,191.898H28.897c-3.888,0-7.04-3.152-7.04-7.04V18.538h173.486v166.32     C195.343,188.746,192.191,191.898,188.303,191.898z" fill="#000000" data-original="#000000" style=""/>
		</g>
	</g>
	<g>
		<g>
			<path class="st1" d="M188.303,193.898H28.897c-4.985,0-9.04-4.056-9.04-9.04V18.538c0-1.104,0.896-2,2-2h173.486     c1.104,0,2,0.896,2,2v166.32C197.343,189.843,193.288,193.898,188.303,193.898z M23.857,20.538v164.32     c0,2.779,2.261,5.04,5.04,5.04h159.406c2.779,0,5.04-2.261,5.04-5.04V20.538H23.857z" fill="#000000" data-original="#000000" style=""/>
		</g>
	</g>
	<g>
		<g>
			<path class="st4" d="M198.443,39.658H18.757c-2.014,0-3.646-1.633-3.646-3.646V22.185c0-2.014,1.633-3.646,3.646-3.646h179.686     c2.014,0,3.646,1.633,3.646,3.646v13.827C202.09,38.026,200.457,39.658,198.443,39.658z" fill="#000000" data-original="#000000" style=""/>
		</g>
	</g>
	<g>
		<g>
			<path class="st1" d="M198.443,41.658H18.757c-3.113,0-5.646-2.533-5.646-5.646V22.185c0-3.113,2.533-5.646,5.646-5.646h179.687     c3.113,0,5.646,2.533,5.646,5.646v13.827C204.089,39.125,201.557,41.658,198.443,41.658z M18.757,20.538     c-0.908,0-1.646,0.738-1.646,1.646v13.827c0,0.908,0.739,1.646,1.646,1.646h179.687c0.908,0,1.646-0.738,1.646-1.646V22.185     c0-0.908-0.738-1.646-1.646-1.646H18.757z" fill="#000000" data-original="#000000" style=""/>
		</g>
	</g>
	<g>
		<g>
			<polygon class="st7" points="209.8,95.098 7.4,95.098 21.857,59.898 195.343,59.898    " fill="#000000" data-original="#000000" style=""/>
		</g>
	</g>
	<g>
		<g>
			<path class="st2" d="M17.97,117.098h-0.9c-5.341,0-9.67-4.329-9.67-9.67v-12.33h20.24v12.33     C27.64,112.769,23.311,117.098,17.97,117.098z" fill="#000000" data-original="#000000" style=""/>
		</g>
	</g>
	<g>
		<g>
			<path class="st3" d="M38.21,117.098h-0.9c-5.341,0-9.67-4.329-9.67-9.67v-12.33h20.24v12.33     C47.88,112.769,43.551,117.098,38.21,117.098z" fill="#000000" data-original="#000000" style=""/>
		</g>
	</g>
	<g>
		<g>
			<path class="st2" d="M58.45,117.098h-0.9c-5.341,0-9.67-4.329-9.67-9.67v-12.33h20.24v12.33     C68.12,112.769,63.791,117.098,58.45,117.098z" fill="#000000" data-original="#000000" style=""/>
		</g>
	</g>
	<g>
		<g>
			<path class="st3" d="M78.69,117.098h-0.9c-5.341,0-9.67-4.329-9.67-9.67v-12.33h20.24v12.33     C88.36,112.769,84.031,117.098,78.69,117.098z" fill="#000000" data-original="#000000" style=""/>
		</g>
	</g>
	<g>
		<g>
			<path class="st2" d="M98.93,117.098h-0.9c-5.341,0-9.67-4.329-9.67-9.67v-12.33h20.24v12.33     C108.6,112.769,104.271,117.098,98.93,117.098z" fill="#000000" data-original="#000000" style=""/>
		</g>
	</g>
	<g>
		<g>
			<path class="st3" d="M119.17,117.098h-0.9c-5.341,0-9.67-4.329-9.67-9.67v-12.33h20.24v12.33     C128.84,112.769,124.511,117.098,119.17,117.098z" fill="#000000" data-original="#000000" style=""/>
		</g>
	</g>
	<g>
		<g>
			<path class="st2" d="M139.41,117.098h-0.9c-5.341,0-9.67-4.329-9.67-9.67v-12.33h20.24v12.33     C149.08,112.769,144.751,117.098,139.41,117.098z" fill="#000000" data-original="#000000" style=""/>
		</g>
	</g>
	<g>
		<g>
			<path class="st3" d="M159.65,117.098h-0.9c-5.341,0-9.67-4.329-9.67-9.67v-12.33h20.24v12.33     C169.32,112.769,164.991,117.098,159.65,117.098z" fill="#000000" data-original="#000000" style=""/>
		</g>
	</g>
	<g>
		<g>
			<path class="st2" d="M179.89,117.098h-0.9c-5.341,0-9.67-4.329-9.67-9.67v-12.33h20.24v12.33     C189.56,112.769,185.231,117.098,179.89,117.098z" fill="#000000" data-original="#000000" style=""/>
		</g>
	</g>
	<g>
		<g>
			<path class="st3" d="M200.13,117.098h-0.9c-5.341,0-9.67-4.329-9.67-9.67v-12.33h20.24v12.33     C209.8,112.769,205.471,117.098,200.13,117.098z" fill="#000000" data-original="#000000" style=""/>
		</g>
	</g>
	<g>
		<g>
			<path class="st1" d="M209.8,97.099H7.4c-0.667,0-1.29-0.332-1.661-0.887c-0.372-0.554-0.442-1.256-0.189-1.873l14.457-35.2     c0.308-0.75,1.039-1.24,1.85-1.24h173.486c0.811,0,1.542,0.49,1.85,1.24l14.457,35.2c0.253,0.617,0.183,1.319-0.189,1.873     C211.09,96.767,210.467,97.099,209.8,97.099z M10.383,93.099h196.433l-12.814-31.2H23.198L10.383,93.099z" fill="#000000" data-original="#000000" style=""/>
		</g>
	</g>
	<g>
		<g>
			<path class="st1" d="M17.97,119.099h-0.9c-6.435,0-11.67-5.235-11.67-11.67v-12.33c0-1.104,0.896-2,2-2h20.24     c1.104,0,2,0.896,2,2v12.33C29.64,113.863,24.405,119.099,17.97,119.099z M9.4,97.099v10.33c0,4.229,3.441,7.67,7.67,7.67h0.9     c4.229,0,7.67-3.44,7.67-7.67v-10.33H9.4z" fill="#000000" data-original="#000000" style=""/>
		</g>
	</g>
	<g>
		<g>
			<path class="st1" d="M38.21,119.099h-0.9c-6.435,0-11.67-5.235-11.67-11.67v-12.33c0-1.104,0.896-2,2-2h20.24     c1.104,0,2,0.896,2,2v12.33C49.88,113.863,44.645,119.099,38.21,119.099z M29.64,97.099v10.33c0,4.229,3.441,7.67,7.67,7.67h0.9     c4.229,0,7.67-3.44,7.67-7.67v-10.33H29.64z" fill="#000000" data-original="#000000" style=""/>
		</g>
	</g>
	<g>
		<g>
			<path class="st1" d="M58.45,119.099h-0.9c-6.435,0-11.67-5.235-11.67-11.67v-12.33c0-1.104,0.896-2,2-2h20.24     c1.104,0,2,0.896,2,2v12.33C70.12,113.863,64.885,119.099,58.45,119.099z M49.88,97.099v10.33c0,4.229,3.441,7.67,7.67,7.67h0.9     c4.229,0,7.67-3.44,7.67-7.67v-10.33H49.88z" fill="#000000" data-original="#000000" style=""/>
		</g>
	</g>
	<g>
		<g>
			<path class="st1" d="M78.69,119.099h-0.9c-6.435,0-11.67-5.235-11.67-11.67v-12.33c0-1.104,0.896-2,2-2h20.24     c1.104,0,2,0.896,2,2v12.33C90.36,113.863,85.125,119.099,78.69,119.099z M70.12,97.099v10.33c0,4.229,3.441,7.67,7.67,7.67h0.9     c4.229,0,7.67-3.44,7.67-7.67v-10.33H70.12z" fill="#000000" data-original="#000000" style=""/>
		</g>
	</g>
	<g>
		<g>
			<path class="st1" d="M98.93,119.099h-0.9c-6.435,0-11.67-5.235-11.67-11.67v-12.33c0-1.104,0.896-2,2-2h20.24     c1.104,0,2,0.896,2,2v12.33C110.6,113.863,105.365,119.099,98.93,119.099z M90.36,97.099v10.33c0,4.229,3.441,7.67,7.67,7.67h0.9     c4.229,0,7.67-3.44,7.67-7.67v-10.33H90.36z" fill="#000000" data-original="#000000" style=""/>
		</g>
	</g>
	<g>
		<g>
			<path class="st1" d="M119.17,119.099h-0.9c-6.435,0-11.67-5.235-11.67-11.67v-12.33c0-1.104,0.896-2,2-2h20.24     c1.104,0,2,0.896,2,2v12.33C130.84,113.863,125.605,119.099,119.17,119.099z M110.6,97.099v10.33c0,4.229,3.441,7.67,7.67,7.67     h0.9c4.229,0,7.67-3.44,7.67-7.67v-10.33H110.6z" fill="#000000" data-original="#000000" style=""/>
		</g>
	</g>
	<g>
		<g>
			<path class="st1" d="M139.41,119.099h-0.9c-6.435,0-11.67-5.235-11.67-11.67v-12.33c0-1.104,0.896-2,2-2h20.24     c1.104,0,2,0.896,2,2v12.33C151.08,113.863,145.845,119.099,139.41,119.099z M130.84,97.099v10.33c0,4.229,3.441,7.67,7.67,7.67     h0.9c4.229,0,7.67-3.44,7.67-7.67v-10.33H130.84z" fill="#000000" data-original="#000000" style=""/>
		</g>
	</g>
	<g>
		<g>
			<path class="st1" d="M159.65,119.099h-0.9c-6.435,0-11.67-5.235-11.67-11.67v-12.33c0-1.104,0.896-2,2-2h20.24     c1.104,0,2,0.896,2,2v12.33C171.32,113.863,166.084,119.099,159.65,119.099z M151.08,97.099v10.33c0,4.229,3.441,7.67,7.67,7.67     h0.9c4.229,0,7.67-3.44,7.67-7.67v-10.33H151.08z" fill="#000000" data-original="#000000" style=""/>
		</g>
	</g>
	<g>
		<g>
			<path class="st1" d="M179.89,119.099h-0.9c-6.435,0-11.67-5.235-11.67-11.67v-12.33c0-1.104,0.896-2,2-2h20.24     c1.104,0,2,0.896,2,2v12.33C191.56,113.863,186.325,119.099,179.89,119.099z M171.32,97.099v10.33c0,4.229,3.441,7.67,7.67,7.67     h0.9c4.229,0,7.67-3.44,7.67-7.67v-10.33H171.32z" fill="#000000" data-original="#000000" style=""/>
		</g>
	</g>
	<g>
		<g>
			<path class="st1" d="M200.13,119.099h-0.9c-6.435,0-11.67-5.235-11.67-11.67v-12.33c0-1.104,0.896-2,2-2h20.24     c1.104,0,2,0.896,2,2v12.33C211.8,113.863,206.565,119.099,200.13,119.099z M191.56,97.099v10.33c0,4.229,3.441,7.67,7.67,7.67     h0.9c4.229,0,7.67-3.44,7.67-7.67v-10.33H191.56z" fill="#000000" data-original="#000000" style=""/>
		</g>
	</g>
	<g>
		<g>
			<g>
				<path class="st3" d="M174.191,126.778h-30.423c-2.291,0-4.149,2.243-4.149,5.009v55.102c0,2.767,1.857,5.009,4.149,5.009h30.423      c2.291,0,4.149-2.243,4.149-5.009v-55.102C178.34,129.021,176.483,126.778,174.191,126.778z" fill="#000000" data-original="#000000" style=""/>
			</g>
		</g>
		<g>
			<g>
				<g>
					<path class="st1" d="M174.191,193.898h-30.423c-3.39,0-6.148-3.145-6.148-7.01v-55.101c0-3.865,2.758-7.01,6.148-7.01h30.423       c3.39,0,6.148,3.145,6.148,7.01v55.101C180.34,190.754,177.582,193.898,174.191,193.898z M143.769,128.778       c-1.165,0-2.148,1.378-2.148,3.01v55.101c0,1.632,0.984,3.01,2.148,3.01h30.423c1.165,0,2.148-1.378,2.148-3.01v-55.101       c0-1.632-0.984-3.01-2.148-3.01H143.769z" fill="#000000" data-original="#000000" style=""/>
				</g>
			</g>
			<g>
				<g>
					<path class="st1" d="M178.34,161.338h-38.72c-1.104,0-2-0.896-2-2s0.896-2,2-2h38.72c1.104,0,2,0.896,2,2       S179.444,161.338,178.34,161.338z" fill="#000000" data-original="#000000" style=""/>
				</g>
			</g>
		</g>
	</g>
	<g>
		<g>
			<g>
				<path class="st3" d="M122.275,167.258h-78.83c-2.532,0-4.585-2.053-4.585-4.585v-31.31c0-2.532,2.053-4.585,4.585-4.585h78.83      c2.532,0,4.585,2.053,4.585,4.585v31.31C126.86,165.206,124.807,167.258,122.275,167.258z" fill="#000000" data-original="#000000" style=""/>
			</g>
		</g>
		<g>
			<g>
				<path class="st1" d="M122.275,169.259h-78.83c-3.631,0-6.585-2.954-6.585-6.586v-31.31c0-3.631,2.954-6.585,6.585-6.585h78.83      c3.631,0,6.585,2.954,6.585,6.585v31.31C128.86,166.305,125.906,169.259,122.275,169.259z M43.445,128.778      c-1.426,0-2.585,1.159-2.585,2.585v31.31c0,1.426,1.16,2.586,2.585,2.586h78.83c1.425,0,2.585-1.16,2.585-2.586v-31.31      c0-1.426-1.16-2.585-2.585-2.585H43.445z" fill="#000000" data-original="#000000" style=""/>
			</g>
		</g>
	</g>
	<g>
		<g>
			<g>
				<path class="st2" d="M241.919,194.48c0.387-0.566,0.759-1.144,1.116-1.733l0.082-0.128h-0.003      c3.47-5.782,5.486-12.617,5.486-19.942c0-20.699-16.036-37.538-35.747-37.538s-35.747,16.84-35.747,37.538      c0,7.325,2.018,14.16,5.488,19.942h-0.005l0.096,0.154c0.156,0.258,0.317,0.512,0.48,0.766l26.917,42.368      c1.318,2.074,4.224,2.074,5.541-0.001L241.919,194.48z" fill="#000000" data-original="#000000" style=""/>
			</g>
		</g>
	</g>
	<g>
		<g>
			<circle class="st6" cx="212.6" cy="171.218" r="28" fill="#000000" data-original="#000000" style=""/>
		</g>
	</g>
	<g>
		<g>
			<g>
				<path class="st1" d="M212.852,239.462c-1.804,0-3.471-0.929-4.458-2.483l-26.917-42.368c-0.168-0.263-0.337-0.53-0.502-0.802      l-0.083-0.133c-0.031-0.049-0.059-0.1-0.085-0.15c-3.729-6.266-5.7-13.471-5.7-20.849c0-21.802,16.933-39.539,37.747-39.539      s37.748,17.737,37.748,39.539c0,7.393-1.977,14.611-5.718,20.881c-0.025,0.048-0.053,0.095-0.082,0.14l-0.082,0.128      c-0.343,0.568-0.729,1.167-1.129,1.754l-26.278,41.398C216.324,238.532,214.657,239.462,212.852,239.462      C212.852,239.462,212.852,239.462,212.852,239.462z M184.358,191.677l0.023,0.038c0.161,0.266,0.314,0.506,0.468,0.747      l26.919,42.372c0.347,0.546,0.828,0.628,1.083,0.628c0.255,0,0.735-0.082,1.082-0.629l26.296-41.426      c0.012-0.019,0.024-0.037,0.037-0.056c0.366-0.536,0.719-1.082,1.057-1.641l0.051-0.081c0.008-0.014,0.016-0.027,0.024-0.041      c3.403-5.669,5.201-12.209,5.201-18.912c0-19.597-15.139-35.539-33.748-35.539s-33.747,15.942-33.747,35.539      c0,6.701,1.799,13.24,5.203,18.912C184.326,191.618,184.343,191.647,184.358,191.677z" fill="#000000" data-original="#000000" style=""/>
			</g>
		</g>
	</g>
	<g>
		<g>
			<g>
				<g>
					<path class="st4" d="M203.272,180.587l2.904,6.115l21.098-10.02c3.209-1.524,4.574-5.36,3.051-8.569l0,0       c-0.08-0.169-0.282-0.241-0.451-0.161L203.272,180.587z" fill="#000000" data-original="#000000" style=""/>
				</g>
			</g>
			<g>
				<g>
					<path class="st4" d="M211.095,184.366l-2.904-6.115l-4.518,2.146c-1.904-1.428-4.514-1.78-6.814-0.688       c-3.302,1.568-4.708,5.517-3.14,8.819c1.568,3.302,5.517,4.708,8.819,3.14c2.066-0.981,3.39-2.894,3.707-4.998L211.095,184.366       z M201.427,189.327c-2.007,0.953-4.415,0.096-5.368-1.911c-0.953-2.007-0.096-4.415,1.911-5.368       c2.007-0.953,4.415-0.096,5.368,1.911C204.292,185.966,203.434,188.374,201.427,189.327z" fill="#000000" data-original="#000000" style=""/>
				</g>
			</g>
		</g>
		<g>
			<g>
				<g>
					<path class="st4" d="M222.411,180.573l-2.888,6.123l-21.124-9.965c-3.213-1.515-4.588-5.348-3.073-8.561h0       c0.08-0.169,0.281-0.242,0.451-0.162L222.411,180.573z" fill="#000000" data-original="#000000" style=""/>
				</g>
			</g>
			<g>
				<g>
					<path class="st4" d="M228.822,179.678c-2.302-1.086-4.911-0.726-6.812,0.706l-4.615-2.177l-2.888,6.123l4.946,2.333       c0.323,2.102,1.651,4.012,3.72,4.988c3.306,1.56,7.251,0.144,8.811-3.163C233.544,185.182,232.128,181.237,228.822,179.678z        M229.642,187.383c-0.948,2.009-3.354,2.873-5.363,1.925c-2.009-0.948-2.873-3.354-1.925-5.363       c0.948-2.009,3.354-2.873,5.363-1.925C229.726,182.968,230.59,185.374,229.642,187.383z" fill="#000000" data-original="#000000" style=""/>
				</g>
			</g>
		</g>
	</g>
	<g>
		<g>
			<g>
				<path class="st4" d="M202.35,160.021h-0.613c-1.647,0-2.981-1.335-2.981-2.981v-2.393c0-1.647,1.335-2.981,2.981-2.981h0.613      c1.647,0,2.981,1.335,2.981,2.981v2.393C205.331,158.686,203.997,160.021,202.35,160.021z" fill="#000000" data-original="#000000" style=""/>
			</g>
		</g>
		<g>
			<g>
				<path class="st4" d="M222.723,160.021h0.613c1.647,0,2.981-1.335,2.981-2.981v-2.393c0-1.647-1.335-2.981-2.981-2.981h-0.613      c-1.647,0-2.981,1.335-2.981,2.981v2.393C219.742,158.686,221.077,160.021,222.723,160.021z" fill="#000000" data-original="#000000" style=""/>
			</g>
		</g>
		<g>
			<g>
				<path class="st4" d="M208.643,154.039h-0.613c-1.647,0-2.981-1.335-2.981-2.981v-2.393c0-1.647,1.335-2.981,2.981-2.981h0.613      c1.647,0,2.981,1.335,2.981,2.981v2.393C211.624,152.704,210.29,154.039,208.643,154.039z" fill="#000000" data-original="#000000" style=""/>
			</g>
		</g>
		<g>
			<g>
				<path class="st4" d="M216.253,154.039h0.613c1.647,0,2.981-1.335,2.981-2.981v-2.393c0-1.647-1.335-2.981-2.981-2.981h-0.613      c-1.647,0-2.981,1.335-2.981,2.981v2.393C213.271,152.704,214.606,154.039,216.253,154.039z" fill="#000000" data-original="#000000" style=""/>
			</g>
		</g>
		<g>
			<g>
				<path class="st4" d="M218.997,160.439c-0.291-0.072-0.493-0.316-0.493-0.594l0,0c0-3.044-2.671-5.512-5.967-5.512l0,0      c-3.295,0-5.967,2.468-5.967,5.512l0,0c0,0.278-0.202,0.522-0.493,0.594c-2.515,0.621-4.368,2.739-4.368,5.259v0.135      c0,3.007,2.639,5.445,5.894,5.445h4.935l0,0h4.935c3.255,0,5.894-2.438,5.894-5.445v-0.135      C223.365,163.178,221.512,161.06,218.997,160.439z" fill="#000000" data-original="#000000" style=""/>
			</g>
		</g>
	</g>
</g>
</g></svg>
