<svg height="512pt" viewBox="0 -138 512 512" width="512pt" xmlns="http://www.w3.org/2000/svg"><path d="m464.496094 50.332031v35.871094c-10.503906 10.503906-16.390625 16.394531-26.894532 26.898437h-31.871093c-10.503907-10.503906-16.390625-16.394531-26.894531-26.898437v-35.871094c0-23.65625 19.175781-42.832031 42.828124-42.832031 23.65625 0 42.832032 19.175781 42.832032 42.832031zm0 0" fill="#f5d9ab"/><path d="m370.300781 160.265625v68.109375h102.730469v-68.109375 68.109375h31.46875v-97.640625c-6.886719-6.886719-10.746094-10.746094-17.636719-17.632813h-130.394531c-6.886719 6.886719-10.75 10.746094-17.636719 17.632813v97.640625h31.46875zm0 0" fill="#96d1f3"/><path d="m406.125 113.101562h31.082031v31.082032h-31.082031zm0 0" fill="#d15573"/><path d="m437.210938 144.183594h-31.085938l-4.960938 84.191406h41.003907zm0 0" fill="#d15573"/><path d="m408.21875 86.203125v-35.871094c0-18.492187 11.71875-34.25 28.136719-40.242187-4.582031-1.675782-9.527344-2.589844-14.6875-2.589844-23.65625 0-42.832031 19.175781-42.832031 42.832031v35.871094c10.503906 10.507813 16.394531 16.394531 26.894531 26.898437h29.382812c-10.503906-10.503906-16.394531-16.394531-26.894531-26.898437zm0 0" fill="#ffb680"/><path d="m385.847656 113.101562h-29.378906c-6.886719 6.886719-10.75 10.746094-17.636719 17.632813v97.644531h29.382813v-97.644531c6.886718-6.886719 10.746094-10.746094 17.632812-17.632813zm0 0" fill="#3ca6e6"/><path d="m406.125 113.101562h19.585938v31.085938h-19.585938zm0 0" fill="#c21d44"/><path d="m406.125 144.183594-4.960938 84.191406h19.589844l4.957032-84.191406zm0 0" fill="#c21d44"/><path d="m133.164062 50.332031v35.871094c-10.503906 10.503906-16.394531 16.394531-26.898437 26.898437h-31.867187c-10.503907-10.503906-16.390626-16.394531-26.894532-26.898437v-35.871094c0-23.65625 19.175782-42.832031 42.828125-42.832031 23.65625 0 42.832031 19.175781 42.832031 42.832031zm0 0" fill="#f5d9ab"/><path d="m38.96875 160.265625v68.109375h102.730469v-68.109375 68.109375h31.464843v-97.640625c-6.886718-6.886719-10.746093-10.746094-17.632812-17.632813h-130.394531c-6.890625 6.886719-10.75 10.746094-17.636719 17.632813v97.640625h31.46875zm0 0" fill="#96d1f3"/><path d="m74.789062 113.101562h31.085938v31.082032h-31.085938zm0 0" fill="#d15573"/><path d="m105.875 144.183594h-31.085938l-4.957031 84.191406h41.003907zm0 0" fill="#d15573"/><path d="m76.882812 86.203125v-35.871094c0-18.492187 11.722657-34.25 28.140626-40.242187-4.582032-1.675782-9.53125-2.589844-14.691407-2.589844-23.652343 0-42.828125 19.175781-42.828125 42.832031v35.871094c10.5 10.507813 16.390625 16.394531 26.894532 26.898437h29.378906c-10.5-10.503906-16.390625-16.394531-26.894532-26.898437zm0 0" fill="#ffb680"/><path d="m54.515625 113.101562h-29.378906c-6.890625 6.886719-10.75 10.746094-17.636719 17.632813v97.644531h29.382812v-97.644531zm0 0" fill="#3ca6e6"/><path d="m74.789062 113.101562h19.589844v31.085938h-19.589844zm0 0" fill="#c21d44"/><path d="m74.789062 144.183594-4.957031 84.191406h19.589844l4.957031-84.191406zm0 0" fill="#c21d44"/><path d="m298.832031 50.332031v35.871094c-10.503906 10.503906-16.394531 16.394531-26.898437 26.898437h-31.867188c-10.503906-10.503906-16.394531-16.394531-26.898437-26.898437v-35.871094c0-23.65625 19.175781-42.832031 42.832031-42.832031s42.832031 19.175781 42.832031 42.832031zm0 0" fill="#f5d9ab"/><path d="m204.636719 160.265625v68.109375h102.726562v-68.109375 68.109375h31.46875v-97.640625c-6.886719-6.886719-10.746093-10.746094-17.632812-17.632813h-130.398438c-6.886719 6.886719-10.746093 10.746094-17.632812 17.632813v97.640625h31.46875zm0 0" fill="#96d1f3"/><path d="m240.457031 113.101562h31.085938v31.082032h-31.085938zm0 0" fill="#d15573"/><path d="m271.542969 144.183594h-31.085938l-4.957031 84.191406h41zm0 0" fill="#d15573"/><path d="m242.550781 86.203125v-35.871094c0-18.492187 11.722657-34.25 28.140625-40.242187-4.582031-1.675782-9.53125-2.589844-14.691406-2.589844-23.65625 0-42.832031 19.175781-42.832031 42.832031v35.871094c10.503906 10.507813 16.394531 16.394531 26.898437 26.898437h29.378906c-10.503906-10.503906-16.390624-16.394531-26.894531-26.898437zm0 0" fill="#ffb680"/><path d="m220.183594 113.101562h-29.382813c-6.886719 6.886719-10.746093 10.746094-17.636719 17.632813v97.644531h29.382813v-97.644531c6.886719-6.886719 10.75-10.746094 17.636719-17.632813zm0 0" fill="#3ca6e6"/><path d="m240.457031 113.101562h19.585938v31.085938h-19.585938zm0 0" fill="#c21d44"/><path d="m240.457031 144.183594-4.957031 84.191406h19.585938l4.957031-84.191406zm0 0" fill="#c21d44"/><path d="m276 61.828125h-15v-15h15zm-25 0h-15v-15h15zm0 0" fill="#fff"/><path d="m489.972656 105.601562h-34.265625l16.289063-16.292968v-38.976563c0-27.753906-22.574219-50.332031-50.328125-50.332031-27.753907 0-50.332031 22.578125-50.332031 50.332031v38.976563l16.289062 16.292968h-27.535156v15h38.535156v23.363282l-4.53125 76.910156h-27.761719v15h145.667969v-108.246094zm-76.347656 15h16.085938v16.082032h-16.085938zm-27.289062-70.269531c0-19.480469 15.851562-35.332031 35.332031-35.332031s35.328125 15.851562 35.328125 35.332031v32.765625l-22.503906 22.503906h-25.652344l-22.503906-22.503906zm22.785156 170.542969 4.074218-69.1875h16.941407l4.074219 69.1875zm87.878906 0h-47.761719l-4.527343-76.910156v-23.363282h39.046874l13.242188 13.238282zm0 0"/><path d="m140.664062 89.308594v-38.976563c0-27.753906-22.578124-50.332031-50.332031-50.332031-27.753906 0-50.328125 22.578125-50.328125 50.332031v38.976563l16.289063 16.292968h-34.265625l-22.027344 22.027344v108.246094h145.667969v-15h-27.761719l-4.53125-76.910156v-23.363282h38.535156v-15h-27.535156zm-85.660156-38.976563c0-19.480469 15.847656-35.332031 35.328125-35.332031s35.332031 15.851562 35.332031 35.332031v32.765625l-22.503906 22.503906h-25.652344l-22.503906-22.503906zm43.371094 86.351563h-16.085938v-16.082032h16.085938zm-83.375 84.191406v-87.03125l13.242188-13.242188h39.046874v23.363282l-4.527343 76.910156zm62.789062 0 4.074219-69.1875h16.941407l4.074218 69.1875zm0 0"/><path d="m290.039062 105.601562 16.292969-16.292968v-38.976563c0-27.753906-22.578125-50.332031-50.332031-50.332031s-50.332031 22.578125-50.332031 50.332031v38.976563l16.292969 16.292968h-34.265626l-22.027343 22.027344v108.246094h180.664062v-108.246094l-22.027343-22.027344zm-42.082031 15h16.085938v16.082032h-16.085938zm-27.289062-70.269531c0-19.480469 15.851562-35.332031 35.332031-35.332031s35.332031 15.851562 35.332031 35.332031v32.765625l-22.503906 22.503906h-25.65625l-22.503906-22.503906zm-8.53125 170.542969v-60.609375h-15v60.609375h-16.46875v-87.03125l13.238281-13.242188h39.050781v23.363282l-4.527343 76.910156zm31.316406 0 4.074219-69.1875h16.941406l4.078125 69.1875zm87.878906 0h-16.46875v-60.609375h-15v60.609375h-16.292969l-4.527343-76.910156v-23.363282h39.050781l13.238281 13.242188zm0 0"/></svg>