<?xml version="1.0" encoding="iso-8859-1"?>
<!-- Generator: Adobe Illustrator 19.0.0, SVG Export Plug-In . SVG Version: 6.00 Build 0)  -->
<svg version="1.1" id="Layer_1" xmlns="http://www.w3.org/2000/svg" xmlns:xlink="http://www.w3.org/1999/xlink" x="0px" y="0px"
	 viewBox="0 0 512.001 512.001" style="enable-background:new 0 0 512.001 512.001;" xml:space="preserve">
<path style="fill:#F2464F;" d="M347.469,346.567L347.469,346.567c0.002-0.001,0.003-0.001,0.005-0.001
	c1.185-0.315,2.376-0.61,3.571-0.891c0.215-0.051,0.43-0.097,0.646-0.145c0.946-0.217,1.894-0.424,2.846-0.62
	c0.324-0.067,0.649-0.132,0.973-0.196c0.506-0.1,1.015-0.19,1.524-0.284c1.359-1.49,2.693-3.003,4.008-4.535
	c-24.921-7.433-43.23-30.598-43.23-57.853v-51.956c0-33.208,27.17-60.377,60.377-60.377l0,0c10.404,0,20.214,2.668,28.783,7.352
	C391.671,81.222,308.639,7.98,208.49,7.98C97.471,7.98,7.473,97.979,7.473,208.998S97.471,410.015,208.49,410.015
	c22.266,0,43.684-3.628,63.704-10.312C289.626,374.028,316.74,354.72,347.469,346.567z"/>
<g>
	<path style="fill:#D3333C;" d="M385.812,170.192c7.572,0.966,14.718,3.347,21.161,6.868C391.671,81.222,308.639,7.98,208.49,7.98
		c-3.348,0-6.675,0.086-9.982,0.248C291.786,12.774,368.344,80.901,385.812,170.192z"/>
	<path style="fill:#D3333C;" d="M317.812,282.043v-51.956c0-29.823,21.919-54.763,50.44-59.539
		c-3.252-0.548-6.589-0.838-9.991-0.838l0,0c-33.208,0-60.377,27.17-60.377,60.377v51.956c0,27.254,18.308,50.418,43.23,57.853
		c-1.314,1.531-2.648,3.044-4.008,4.535c-0.508,0.094-1.016,0.184-1.524,0.284c-0.325,0.065-0.65,0.129-0.975,0.196
		c-0.952,0.196-1.9,0.403-2.845,0.62c-0.215,0.05-0.431,0.096-0.646,0.145c-1.196,0.281-2.386,0.576-3.571,0.891
		c-0.002,0-0.004,0.001-0.005,0.001l0,0c-30.729,8.153-57.843,27.461-75.275,53.135c-17.035,5.688-35.085,9.153-53.808,10.063
		c3.324,0.163,6.668,0.25,10.033,0.25c22.266,0,43.684-3.628,63.704-10.312c17.432-25.675,44.546-44.983,75.275-53.135l0,0
		c0.002-0.001,0.003-0.001,0.005-0.001c1.185-0.315,2.376-0.61,3.571-0.891c0.215-0.051,0.43-0.097,0.646-0.145
		c0.946-0.217,1.894-0.424,2.846-0.62c0.324-0.067,0.649-0.132,0.974-0.196c0.506-0.1,1.015-0.19,1.524-0.284
		c1.359-1.49,2.693-3.003,4.008-4.535C336.121,332.461,317.812,309.297,317.812,282.043z"/>
</g>
<path style="fill:#68B9D8;" d="M378.19,504.02H251.852v-39.547c0-66.67,59.674-121.244,126.338-122.156
	c66.663,0.912,126.338,55.487,126.338,122.156v39.547H378.19z"/>
<path style="fill:#3695B2;" d="M378.19,342.316c-3.342,0.046-6.664,0.232-9.964,0.543c62.531,5.877,116.374,58.286,116.374,121.614
	v39.547h19.929v-39.547C504.528,397.804,444.853,343.228,378.19,342.316z"/>
<path style="fill:#FFC89F;" d="M378.19,342.42L378.19,342.42c33.208,0,60.378-27.17,60.378-60.378v-51.956
	c0-33.208-27.17-60.377-60.378-60.377l0,0c-33.208,0-60.377,27.17-60.377,60.377v51.956
	C317.812,315.251,344.982,342.42,378.19,342.42z"/>
<path style="fill:#F7B081;" d="M378.19,169.708L378.19,169.708c-3.394,0-6.72,0.298-9.964,0.843
	c28.508,4.788,50.413,29.72,50.413,59.535v51.956c0,29.814-21.905,54.747-50.413,59.535c3.245,0.545,6.57,0.843,9.964,0.843l0,0
	c33.208,0,60.378-27.17,60.378-60.378v-51.956C438.567,196.879,411.398,169.708,378.19,169.708z"/>
<path style="fill:#D3333C;" d="M392.692,378.076H378.19h-14.502l-16.219-31.51c9.931-2.635,20.239-4.107,30.721-4.251
	c10.481,0.143,20.789,1.615,30.721,4.251L392.692,378.076z"/>
<path style="fill:#7F1B20;" d="M388.85,342.933l-16.086,35.144h5.427h14.502l16.219-31.51
	C402.368,344.831,395.66,343.612,388.85,342.933z"/>
<polygon style="fill:#F2464F;" points="378.19,479.738 346.871,451.074 363.688,378.076 378.19,378.076 392.692,378.076 
	409.509,451.074 "/>
<polygon style="fill:#D3333C;" points="392.692,378.076 378.19,378.076 372.763,378.076 389.58,451.074 368.226,470.618 
	378.19,479.738 409.509,451.074 "/>
<path style="fill:#EFE7E4;" d="M327.743,315.104c-6.272-9.511-9.93-20.878-9.93-33.061v-51.956c0-28.21,19.611-52.051,45.868-58.593
	c-16.872-70.065-79.946-122.129-155.19-122.129c-88.163,0-159.633,71.47-159.633,159.633S120.327,368.63,208.49,368.63
	C255.917,368.63,298.505,347.941,327.743,315.104z"/>
<path style="fill:#D8D1D0;" d="M363.681,171.494c-16.872-70.065-79.946-122.129-155.19-122.129c-3.325,0-6.623,0.115-9.899,0.315
	c70.768,4.388,129.043,54.886,145.16,121.814c-26.259,6.542-45.868,30.383-45.868,58.593v51.956c0,12.183,3.659,23.551,9.93,33.061
	c-27.173,30.517-65.878,50.531-109.279,53.208c3.294,0.202,6.611,0.318,9.956,0.318c47.426,0,90.013-20.69,119.251-53.526
	c-6.272-9.511-9.93-20.878-9.93-33.061v-51.956C317.812,201.877,337.423,178.036,363.681,171.494z"/>
<circle style="fill:#F7CB4F;" cx="208.393" cy="208.901" r="23.85"/>
<path style="fill:#F4B008;" d="M208.392,185.048c-3.558,0-6.931,0.785-9.964,2.182c8.195,3.774,13.886,12.055,13.886,21.668
	c0,9.614-5.692,17.894-13.886,21.668c3.033,1.397,6.406,2.182,9.964,2.182c13.172,0,23.85-10.678,23.85-23.85
	C232.242,195.726,221.563,185.048,208.392,185.048z"/>
<path d="M261.439,351.69c-16.916,6.281-34.73,9.467-52.948,9.467c-83.901,0-152.159-68.258-152.159-152.159
	c0-30.777,9.139-60.42,26.429-85.728c2.328-3.408,1.453-8.058-1.955-10.387c-3.409-2.327-8.058-1.453-10.387,1.955
	c-18.995,27.801-29.034,60.362-29.034,94.158c0,92.143,74.963,167.106,167.106,167.106c20,0,39.564-3.499,58.15-10.402
	c3.869-1.437,5.841-5.738,4.404-9.608C269.608,352.225,265.306,350.251,261.439,351.69z"/>
<path d="M149.49,283.019c2.019,0,4.032-0.813,5.505-2.417l39.905-43.438c4.088,1.959,8.663,3.059,13.492,3.059
	c17.272,0,31.324-14.052,31.324-31.324c0-14.696-10.176-27.055-23.85-30.416V94.646c0-4.127-3.346-7.473-7.473-7.473
	s-7.473,3.346-7.473,7.473v83.837c-13.674,3.361-23.85,15.72-23.85,30.415c0,7.035,2.332,13.533,6.262,18.768l-39.341,42.823
	c-2.792,3.039-2.593,7.766,0.447,10.559C145.872,282.368,147.682,283.019,149.49,283.019z M208.392,192.522
	c9.031,0,16.377,7.347,16.377,16.377s-7.347,16.377-16.377,16.377c-9.031,0-16.377-7.347-16.377-16.377
	S199.361,192.522,208.392,192.522z"/>
<path d="M413.424,340.006c19.542-11.923,32.616-33.445,32.616-57.963v-51.957c0-24.384-12.935-45.796-32.297-57.759
	c-8.358-47.038-32.874-90.039-69.319-121.411C306.659,18.409,258.383,0.507,208.49,0.507C93.529,0.507,0,94.036,0,208.998
	s93.529,208.49,208.49,208.49c16.298,0,32.409-1.884,48.105-5.596c-7.821,16.196-12.217,34.031-12.217,52.58v39.547
	c0,4.127,3.346,7.473,7.473,7.473h56.693c4.127,0,7.473-3.346,7.473-7.473s-3.346-7.473-7.473-7.473h-49.22v-32.074
	c0-20.711,6.14-40.789,17.626-58.479l0.006-0.002l1.419-2.09c9.733-14.334,22.762-26.577,37.713-35.763
	c0.168-0.103,0.337-0.205,0.505-0.307c0.606-0.369,1.215-0.733,1.827-1.091c8.006-4.665,16.489-8.442,25.243-11.233l12.126,23.559
	l-16.202,70.332c-0.605,2.625,0.25,5.372,2.237,7.19l31.319,28.664c1.428,1.306,3.236,1.96,5.046,1.96
	c1.81,0,3.617-0.654,5.046-1.96l31.319-28.664c1.987-1.819,2.842-4.566,2.237-7.19l-16.202-70.332l12.126-23.559
	c17.886,5.702,34.652,15.493,48.495,28.647c23.114,21.961,35.844,50.486,35.844,80.319v32.074H333.456
	c-4.127,0-7.473,3.346-7.473,7.473s3.346,7.473,7.473,7.473h171.072c4.127,0,7.473-3.346,7.473-7.473v-39.547
	C512,406.766,469.508,355.946,413.424,340.006z M267.485,393.379c-19.018,6.08-38.852,9.162-58.994,9.162
	c-106.72,0.001-193.544-86.823-193.544-193.544S101.77,15.454,208.49,15.454c46.317,0,91.129,16.617,126.184,46.791
	c31.227,26.88,53.026,62.941,62.3,102.657c-2.197-0.634-4.439-1.159-6.721-1.57c-0.143-0.026-0.287-0.052-0.431-0.077
	c-0.68-0.118-1.359-0.231-2.046-0.329c-0.4-0.058-0.802-0.103-1.203-0.153c-0.779-0.097-1.561-0.184-2.349-0.254
	c-0.66-0.06-1.32-0.111-1.982-0.151c-0.343-0.02-0.686-0.04-1.03-0.055c-1.006-0.046-2.015-0.077-3.024-0.077
	c-3.075,0-6.096,0.225-9.064,0.624c-9.516-33.099-29.385-62.914-56.489-84.546c-29.856-23.828-65.869-36.422-104.147-36.422
	c-45.521,0-88.07,17.977-119.811,50.617c-2.878,2.958-2.811,7.69,0.147,10.568c2.959,2.878,7.69,2.812,10.567-0.148
	c28.902-29.722,67.647-46.091,109.096-46.091c34.854,0,67.643,11.466,94.823,33.158c24.548,19.591,42.579,46.543,51.299,76.471
	c-1.498,0.557-2.964,1.177-4.411,1.835c-0.217,0.098-0.434,0.194-0.651,0.295c-0.524,0.245-1.044,0.497-1.561,0.755
	c-0.478,0.237-0.951,0.481-1.422,0.729c-0.335,0.177-0.671,0.351-1.002,0.533c-16.348,8.95-28.3,24.253-33.01,42.261
	c-0.05,0.189-0.099,0.38-0.146,0.57c-0.218,0.866-0.42,1.737-0.605,2.615c-0.037,0.173-0.077,0.345-0.112,0.518
	c-0.208,1.031-0.397,2.07-0.558,3.117c-0.021,0.134-0.036,0.27-0.056,0.404c-0.131,0.883-0.243,1.771-0.34,2.663
	c-0.034,0.319-0.064,0.64-0.094,0.96c-0.07,0.752-0.128,1.508-0.172,2.266c-0.019,0.315-0.041,0.63-0.055,0.946
	c-0.048,1.047-0.08,2.097-0.08,3.155v51.957c0,0.731,0.013,1.462,0.037,2.191c0.01,0.319,0.03,0.636,0.044,0.955
	c0.019,0.399,0.034,0.798,0.06,1.197c0.027,0.428,0.065,0.854,0.1,1.28c0.023,0.277,0.043,0.554,0.069,0.831
	c0.048,0.506,0.106,1.01,0.165,1.514c0.022,0.185,0.042,0.372,0.065,0.556c0.073,0.578,0.155,1.152,0.242,1.725
	c0.015,0.1,0.03,0.2,0.045,0.301c0.102,0.65,0.214,1.295,0.334,1.939c0.002,0.012,0.004,0.024,0.007,0.037
	c1.305,6.962,3.673,13.553,6.935,19.597c-9.768,10.213-20.862,18.996-33.047,26.149c-3.559,2.09-4.751,6.669-2.66,10.228
	c1.392,2.371,3.888,3.691,6.452,3.691c1.285,0,2.589-0.332,3.777-1.029c12.506-7.343,23.947-16.27,34.148-26.559
	c4.562,5.216,9.902,9.736,15.846,13.362c-28.782,8.18-53.98,25.547-71.697,48.317C269.961,389.98,268.7,391.665,267.485,393.379z
	 M360.526,351.414c0.449-0.075,0.899-0.149,1.348-0.219c0.839-0.132,1.679-0.256,2.52-0.369c1.045-0.14,2.092-0.266,3.138-0.378
	c0.5-0.054,1-0.105,1.501-0.151c1.298-0.121,2.598-0.226,3.897-0.304c0.298-0.018,0.595-0.031,0.893-0.046
	c0.898-0.047,1.796-0.07,2.693-0.096c0.558,0.014,1.112,0.043,1.674,0.043c0.561,0,1.116-0.029,1.674-0.043
	c0.898,0.026,1.796,0.049,2.693,0.096c0.298,0.016,0.595,0.028,0.893,0.046c1.299,0.078,2.598,0.182,3.897,0.304
	c0.5,0.048,1,0.098,1.501,0.151c1.047,0.112,2.092,0.238,3.138,0.378c0.841,0.114,1.681,0.238,2.521,0.369
	c0.449,0.07,0.899,0.144,1.348,0.219c0.661,0.112,1.321,0.223,1.98,0.345l-9.699,18.844h-19.888l-9.7-18.844
	C359.205,351.637,359.866,351.524,360.526,351.414z M401.247,448.504l-23.057,21.103l-23.057-21.103l14.503-62.954h17.11
	L401.247,448.504z M380.23,334.895c-0.646-0.018-1.29-0.042-1.938-0.051c-0.068-0.001-0.137-0.001-0.204,0
	c-0.648,0.009-1.292,0.033-1.937,0.051c-4.074-0.155-8.026-0.787-11.817-1.817l-1.155-0.345
	c-20.164-6.014-34.828-23.62-37.465-44.072c-0.015-0.119-0.03-0.236-0.044-0.355c-0.067-0.544-0.123-1.091-0.171-1.639
	c-0.032-0.365-0.058-0.73-0.082-1.097c-0.023-0.338-0.047-0.676-0.064-1.014c-0.003-0.054-0.007-0.108-0.009-0.16
	c-0.035-0.78-0.059-1.563-0.059-2.353v-26.248c47.109-3.151,64.525-35.363,64.525-35.363s11.537,30.385,41.284,35.017v26.595
	C431.094,310.529,408.458,333.818,380.23,334.895z"/>
<g>
</g>
<g>
</g>
<g>
</g>
<g>
</g>
<g>
</g>
<g>
</g>
<g>
</g>
<g>
</g>
<g>
</g>
<g>
</g>
<g>
</g>
<g>
</g>
<g>
</g>
<g>
</g>
<g>
</g>
</svg>
