<?xml version="1.0" standalone="no"?>
<!DOCTYPE svg PUBLIC "-//W3C//DTD SVG 20010904//EN"
 "http://www.w3.org/TR/2001/REC-SVG-20010904/DTD/svg10.dtd">
<svg version="1.0" xmlns="http://www.w3.org/2000/svg"
 width="300.000000pt" height="300.000000pt" viewBox="0 0 300.000000 300.000000"
 preserveAspectRatio="xMidYMid meet">

<g transform="translate(0.000000,300.000000) scale(0.100000,-0.100000)"
fill="#000000" stroke="none">
<path d="M1826 2355 c-230 -283 -422 -515 -426 -515 -4 0 -57 55 -116 123
-371 418 -693 767 -694 751 0 -15 141 -250 279 -463 135 -210 127 -196 110
-186 -8 5 -155 103 -327 217 -173 114 -319 208 -325 208 -20 -1 136 -144 364
-335 254 -213 422 -361 503 -443 l59 -61 -55 -68 c-30 -37 -249 -306 -487
-598 -341 -418 -431 -535 -429 -554 2 -19 46 -55 198 -162 107 -76 203 -139
212 -139 39 0 27 25 -43 89 -120 107 -169 157 -169 171 0 20 23 6 132 -83 126
-103 171 -129 149 -89 -6 11 -64 63 -131 117 -66 53 -120 101 -120 105 0 4 8
14 18 23 16 14 25 9 127 -74 104 -85 162 -125 170 -117 8 8 -45 59 -147 142
-60 48 -108 91 -108 94 0 4 7 15 15 26 13 17 20 13 117 -66 128 -104 167 -132
175 -124 10 9 -32 50 -149 146 -108 88 -108 88 -90 111 l18 22 132 -107 c73
-58 136 -106 142 -106 30 0 -13 44 -155 160 -49 40 -91 76 -93 80 -1 3 6 14
16 23 18 17 24 13 137 -78 123 -100 153 -120 163 -111 9 9 -32 48 -149 143
-60 48 -109 89 -109 92 0 3 7 14 15 25 17 22 13 24 145 -84 121 -100 150 -118
150 -96 0 8 -56 61 -125 118 -69 56 -125 105 -125 108 0 3 6 15 14 25 13 18
20 14 132 -76 124 -100 164 -127 164 -110 0 16 -39 53 -153 146 l-109 88 20
20 21 20 96 -79 c105 -87 176 -136 184 -129 8 8 -39 53 -149 143 -58 47 -107
87 -109 89 -3 2 5 13 16 25 l21 21 104 -85 c122 -100 148 -118 166 -118 12 0
12 3 1 17 -10 12 -219 188 -247 209 -7 5 19 44 28 44 6 0 65 -45 132 -100 68
-55 129 -100 135 -100 35 0 4 32 -150 155 -48 39 -87 75 -87 81 0 11 20 34 31
34 4 0 62 -45 130 -100 115 -93 157 -118 147 -87 -3 6 -62 59 -131 116 -121
99 -126 105 -111 123 10 10 20 18 23 18 3 0 62 -45 130 -100 69 -55 130 -100
137 -100 29 0 -3 34 -122 130 -123 100 -124 101 -108 125 l16 24 129 -104 c72
-58 137 -105 145 -105 27 0 -5 34 -124 130 -61 50 -114 95 -118 101 -3 6 2 19
11 29 16 18 21 16 123 -69 128 -104 152 -121 171 -121 22 0 -33 53 -149 146
-98 78 -111 97 -79 117 13 8 37 -7 120 -75 118 -96 157 -123 166 -115 9 10
-13 32 -126 124 -143 116 -133 104 -112 130 l18 22 77 -63 c42 -34 87 -78 100
-97 46 -68 115 -206 151 -304 34 -91 37 -107 34 -190 -5 -167 -2 -190 26 -254
30 -66 85 -124 141 -147 18 -8 65 -18 104 -24 124 -18 166 -56 154 -144 -11
-78 45 -129 80 -73 36 56 24 184 -24 262 l-19 31 24 49 c20 39 25 63 25 125 0
65 -4 86 -30 137 -33 67 -59 90 -165 148 -38 22 -94 62 -123 89 -63 59 -167
199 -216 288 -34 62 -72 175 -63 184 12 12 164 -63 263 -128 120 -80 245 -198
319 -303 96 -137 122 -155 233 -155 93 0 155 23 213 79 148 144 46 388 -179
429 -36 6 -91 6 -163 -1 -130 -13 -183 -5 -335 53 -132 49 -134 50 -255 152
-57 47 -115 95 -129 106 -22 18 -23 22 -10 36 13 13 29 3 143 -90 113 -91 147
-115 147 -100 0 2 -58 52 -130 110 -71 59 -130 111 -130 117 0 31 41 9 159
-85 72 -58 134 -106 137 -106 14 0 -17 29 -130 122 -111 92 -138 126 -111 135
6 2 57 -36 115 -83 126 -103 160 -128 166 -121 3 3 -53 53 -125 111 -72 59
-133 110 -135 115 -3 5 1 14 9 21 11 9 34 -5 122 -78 59 -49 122 -97 138 -107
l30 -19 -20 23 c-10 12 -70 63 -132 113 -98 80 -111 93 -102 110 9 17 13 18
27 6 22 -19 233 -189 250 -201 8 -6 12 -6 12 1 0 6 -58 58 -130 116 -89 74
-128 111 -124 121 4 8 11 15 16 15 5 0 58 -40 116 -88 59 -49 121 -97 137
-107 l30 -19 -20 23 c-16 19 -164 143 -235 198 -13 11 -13 13 0 27 14 14 26 7
120 -70 127 -104 160 -128 166 -121 3 3 -53 53 -125 112 -72 58 -131 110 -131
114 0 4 5 12 11 18 8 8 46 -17 137 -93 70 -57 131 -104 136 -104 16 0 -26 39
-141 132 -88 72 -110 94 -102 105 7 7 14 13 18 13 3 0 64 -47 136 -105 117
-95 145 -114 145 -101 0 3 -61 55 -136 117 -121 99 -134 113 -121 127 14 13
27 5 124 -75 59 -49 122 -98 138 -108 l30 -19 -20 23 c-16 19 -164 143 -235
198 -13 10 -13 13 0 27 13 13 27 6 120 -70 128 -105 160 -128 166 -121 3 3
-54 53 -125 112 -72 58 -131 111 -131 116 0 33 41 11 159 -85 72 -58 134 -106
138 -106 13 0 -35 45 -137 128 -58 47 -109 88 -113 92 -8 7 1 40 12 40 3 0 64
-47 136 -105 118 -96 157 -122 140 -95 -3 5 -62 55 -130 111 -69 55 -125 104
-125 107 0 4 4 13 9 21 7 11 33 -6 118 -76 59 -49 122 -98 138 -108 l30 -19
-23 26 c-12 14 -72 65 -132 114 -83 67 -106 91 -98 101 6 7 14 13 18 13 5 0
48 -33 97 -73 122 -100 163 -131 169 -124 3 2 -54 53 -126 112 -116 95 -130
109 -117 122 13 14 30 3 146 -91 72 -58 134 -106 138 -106 13 0 -35 45 -137
128 -58 47 -109 89 -115 94 -6 5 -4 14 6 23 13 13 30 2 144 -90 117 -95 145
-114 145 -101 0 3 -58 53 -130 112 -71 58 -130 111 -130 116 0 5 7 11 15 14 9
4 51 -24 111 -72 52 -44 114 -92 137 -108 l42 -29 -33 35 c-18 19 -78 70 -132
114 -91 72 -113 101 -84 111 6 2 69 -44 139 -102 71 -58 133 -105 138 -105 17
0 -15 30 -135 127 -111 90 -131 114 -108 128 5 3 69 -42 141 -100 72 -59 133
-104 136 -101 6 6 -20 30 -149 133 -53 43 -97 81 -97 86 -2 25 56 -4 153 -77
115 -87 148 -103 154 -75 2 11 -59 75 -174 183 -136 127 -183 166 -203 166
-22 0 -90 -79 -445 -515z m-386 -635 c26 -26 25 -64 -2 -90 -29 -27 -54 -25
-83 5 -30 29 -31 45 -4 79 25 31 61 34 89 6z m210 -73 c102 -82 114 -95 55
-62 -73 41 -165 105 -165 114 0 13 12 21 24 14 6 -4 45 -34 86 -66z m846 -342
c94 -42 153 -127 140 -201 -10 -48 -64 -100 -115 -109 -79 -13 -198 41 -251
115 -61 86 -20 197 83 220 42 9 81 3 143 -25z m-468 -492 c20 -16 51 -52 67
-78 26 -42 30 -58 30 -122 0 -68 -2 -75 -30 -103 -62 -61 -146 -56 -217 13
-55 53 -81 107 -86 177 -3 45 0 61 20 90 32 48 63 62 126 57 40 -3 61 -11 90
-34z"/>
</g>
</svg>
