<?xml version="1.0"?>
<svg xmlns="http://www.w3.org/2000/svg" viewBox="0 0 512 512" width="512" height="512"><g id="Hair_Dye" data-name="Hair Dye"><g id="Outline"><path d="M511.962,279.243c-.01-.1-.026-.2-.039-.3-.02-.146-.04-.291-.067-.435-.023-.121-.051-.239-.079-.358s-.057-.237-.091-.354-.075-.249-.117-.372-.076-.215-.117-.322c-.048-.122-.1-.243-.15-.362s-.1-.211-.151-.316-.112-.224-.173-.334-.133-.222-.2-.332-.116-.192-.18-.284c-.094-.137-.2-.269-.3-.4-.047-.06-.089-.123-.138-.181l-.013-.018L472,229.1V200a8,8,0,0,0-8-8h-8.64L439.97,7.34A8.022,8.022,0,0,0,432,0H416a8.022,8.022,0,0,0-7.97,7.34l-4.1,49.16a8.017,8.017,0,0,0,7.31,8.64,8.014,8.014,0,0,0,8.64-7.31L423.36,16h1.28l14.667,176H408.692l5.868-70.39a8,8,0,0,0-7.31-8.64,7.979,7.979,0,0,0-8.63,7.31L392.641,192H384a8,8,0,0,0-8,8v29.1l-38.146,45.775a8,8,0,0,0,12.292,10.244L387.747,240h72.506l26.667,32H424a8,8,0,0,0,0,16h72V496H456a8,8,0,0,0,0,16h48a8,8,0,0,0,8-8V280C512,279.746,511.986,279.494,511.962,279.243ZM456,224H392V208h64Z"/><path d="M408.58,97.03c.22.01.45.02.67.02a7.916,7.916,0,1,0-.67-.02Z"/><path d="M256,352a53.658,53.658,0,0,1-25.792-6.948,8,8,0,1,0-7.931,13.9A69.159,69.159,0,0,0,256,368a8,8,0,0,0,0-16Z"/><path d="M416,384H375.978a87.116,87.116,0,0,0-59.632-81.65c-9.276-3.093-16.514-10.126-18.439-17.918-1.355-5.485.1-10.5,4.316-14.893,3.269-3.408,15.382-15.828,15.5-15.954A8,8,0,0,0,312,240H288a88.108,88.108,0,0,0-87.913,84.047A88.548,88.548,0,0,0,168.377,384H160a8,8,0,0,0-8,8v48A40.067,40.067,0,0,0,184,479.2V504a8,8,0,0,0,8,8H352a8,8,0,0,0,8-8V479.2A40.067,40.067,0,0,0,392,440V400h24a8.009,8.009,0,0,1,8,8v16a8,8,0,0,0,16,0V408A24.027,24.027,0,0,0,416,384ZM212.8,334.4A8,8,0,0,0,216,328a71.56,71.56,0,0,1,6.185-29.144c.086.232.159.462.249.694,7.515,19.438,30.909,38.032,55.626,44.211a8,8,0,1,0,3.88-15.522c-19.728-4.932-38.9-19.746-44.583-34.459-2.535-6.556-2.109-12.229,1.3-17.342a8.054,8.054,0,0,0,.807-1.567A71.719,71.719,0,0,1,288,256h5.054c-.977,1.009-1.8,1.864-2.377,2.461-8.034,8.375-10.983,18.961-8.3,29.808,3.258,13.189,14.337,24.4,28.913,29.259A71.14,71.14,0,0,1,359.978,384H184.457A72.4,72.4,0,0,1,212.8,334.4ZM344,496H200V480H344Zm32-80H216a8,8,0,0,0,0,16H376v8a24.027,24.027,0,0,1-24,24H192a24.027,24.027,0,0,1-24-24v-8h16a8,8,0,0,0,0-16H168V400H376Z"/><path d="M162.174,296a7.976,7.976,0,0,0,5.555-2.244L271.536,193.563a8,8,0,0,0,.1-11.413l-33.98-33.98a8,8,0,0,0-11.314,11.313l28.222,28.223-14.437,13.935-9.039-9.038a8,8,0,0,0-11.313,11.313l8.838,8.838-14.438,13.935-18.443-18.442A8,8,0,0,0,184.42,219.56L202.662,237.8l-40.39,38.984-42.459-42.46L134,220.14l18.275,18.275A8,8,0,0,0,163.588,227.1l-18.275-18.276L185,169.14l12.148,12.149a8,8,0,1,0,11.314-11.314l-12.149-12.149,26.412-26.411a8,8,0,0,0,0-11.314,85.419,85.419,0,0,0-64.85-24.833A108,108,0,0,1,75.9,63.788l-38.3-37.5A8,8,0,1,0,26.4,37.716L64.648,75.161a123.953,123.953,0,0,0,94.073,36.084,69.457,69.457,0,0,1,46.7,14.843l-76.25,76.25a7.955,7.955,0,0,0-.9.764,8.06,8.06,0,0,0-.764.9L105.2,226.312a7.858,7.858,0,0,0-1.215.573,69.481,69.481,0,0,1-14.567-46.337A123.958,123.958,0,0,0,53.334,86.475L17.2,50.343A8,8,0,0,0,5.889,61.657L42.021,97.789A107.94,107.94,0,0,1,73.441,179.7a85.437,85.437,0,0,0,24.833,64.849,7.993,7.993,0,0,0,10.118.982l48.125,48.124A7.973,7.973,0,0,0,162.174,296Z"/><circle cx="392" cy="280" r="8"/><circle cx="8" cy="8" r="8"/><circle cx="296" cy="360" r="8"/><path d="M424,496H384a8,8,0,0,0,0,16h40a8,8,0,0,0,0-16Z"/></g></g></svg>
