<svg id="Layer_1_1_" enable-background="new 0 0 64 64" height="512" viewBox="0 0 64 64" width="512" xmlns="http://www.w3.org/2000/svg"><path d="m39 34c-2.526 0-4.278-1.693-4.296-1.71l-1.411 1.417c.094.094 2.332 2.293 5.707 2.293s5.613-2.199 5.707-2.293l-1.414-1.414c-.017.017-1.737 1.707-4.293 1.707z"/><path d="m27.293 32.293c-.017.017-1.737 1.707-4.293 1.707-2.526 0-4.278-1.693-4.293-1.707l-1.414 1.414c.094.094 2.332 2.293 5.707 2.293s5.613-2.199 5.707-2.293z"/><path d="m26.316 45.051-.633 1.897c2.037.679 4.177 1.019 6.316 1.019s4.28-.34 6.316-1.019l-.633-1.897c-3.663 1.222-7.701 1.222-11.366 0z"/><path d="m3.668 35.868c-.003.044-.004.089-.001.134.121 2.166.792 4.283 1.941 6.122l2.35 3.759c.417.667 1.07 1.126 1.839 1.292.205.044.411.066.615.066.033 0 .065-.006.098-.007l.846 1.128c.78 1.04 1.985 1.596 3.208 1.596.745 0 1.497-.207 2.162-.636l1.567-1.013c.539.681 1.108 1.338 1.705 1.973v11.718h2v-9.763c.063.056.12.116.184.172 1.137.989 2.226 1.721 3.33 2.235 1.946.906 3.996 1.35 6.021 1.35 3.222 0 6.383-1.125 8.961-3.308.174-.147.334-.307.504-.458v9.772h2v-11.709c.652-.689 1.28-1.4 1.864-2.143l1.138.852c.7.525 1.532.801 2.391.801.19 0 .382-.014.575-.041 1.057-.151 1.993-.705 2.634-1.56l.725-.966c.033.001.065.007.099.007.204 0 .41-.022.615-.066.769-.166 1.422-.625 1.839-1.291l2.35-3.76c1.15-1.84 1.821-3.957 1.942-6.188l-.168-14.807 2.963-10.865c.134-.49-.122-1.003-.593-1.192l-10-4c-.423-.169-.901-.033-1.172.328l-2.236 2.981c-3.509-4.216-8.859-6.379-15.964-6.379-6.971 0-12.311 2.083-15.941 6.141l-1.147-2.553c-.214-.477-.757-.708-1.25-.532l-11.165 4c-.491.177-.764.701-.627 1.205l2.954 10.832zm35.536 15.291c-3.597 3.044-8.52 3.686-12.846 1.67-.932-.434-1.868-1.065-2.861-1.93-4.035-3.515-7-8.079-8.576-13.199l-.228-.736c-.263-.85-.474-1.532-.641-2.175.289-3.647 1.767-10.949 8.833-13.9 2.354-.983 5.072-2.155 7.828-3.36 2.354.497 17.07 4.152 18.164 17.84-.188.702-.424 1.456-.718 2.378-1.669 5.23-4.765 9.867-8.955 13.412zm12.136-43.946 8.46 3.384-2.766 10.14c-.024.089-.036.182-.035.274l.171 14.88c-.101 1.829-.668 3.618-1.64 5.172l-2.35 3.76c-.128.205-.328.345-.564.396-.235.052-.476.005-.677-.128-.371-.247-.5-.734-.301-1.132l1.392-2.784c.621-1.242 1.036-2.57 1.232-3.945l.727-5.088-1.979-.283-.727 5.089c-.166 1.162-.516 2.283-1.042 3.333l-1.392 2.784c-.571 1.141-.313 2.504.578 3.365l-.427.57c-.662.882-1.918 1.061-2.8.4l-1.154-.866c1.721-2.504 3.084-5.251 4.018-8.178.043-.136.083-.261.124-.392.334-.084.615-.332.719-.681.21-.71 4.903-16.971-1.688-27.243zm-4.386 3.063c4.454 6.008 4.058 15.098 3.184 20.901-2.757-9.343-11.866-13.41-16.539-14.916 5.894-2.602 11.431-5.111 13.355-5.985zm-30.142.036c3.223-4.187 8.333-6.31 15.188-6.31 5.911 0 10.472 1.578 13.593 4.695-3.836 1.741-15.673 7.087-23.478 10.347-5.616 2.346-8.13 7.055-9.248 11.071-.572-5.796-.409-14.147 3.945-19.803zm-12.769.317 9.424-3.376 1.186 2.639c-7.029 10.255-2.807 26.653-2.619 27.363.11.416.472.695.883.73l.094.303c.928 3.016 2.321 5.841 4.093 8.408l-1.462.945c-.879.566-2.058.356-2.686-.48l-.549-.732c.891-.861 1.149-2.224.578-3.365l-1.392-2.784c-.525-1.05-.875-2.171-1.042-3.333l-.727-5.088-1.979.283.727 5.088c.196 1.375.611 2.703 1.232 3.945l1.392 2.784c.199.398.07.885-.301 1.132-.2.134-.441.18-.677.128-.236-.051-.436-.191-.564-.396l-2.35-3.759c-.96-1.536-1.525-3.301-1.636-5.108l1.164-14.878c.009-.115-.002-.23-.032-.341z"/></svg>