<svg height="512" viewBox="0 0 128 128" width="512" xmlns="http://www.w3.org/2000/svg"><g id="Circle_Grid" data-name="Circle Grid"><circle cx="64" cy="64" fill="#f6c863" r="64"/></g><g id="icon"><rect fill="#575b6d" height="82" rx="4.052" width="51.322" x="38.339" y="23"/><path d="m41.426 30.139h45.148v63.092h-45.148z" fill="#69b0ee"/><circle cx="64" cy="98.961" fill="#828a9e" r="2.861"/><path d="m67.622 25.836h-7.244a.888.888 0 1 0 0 1.777h7.243a.888.888 0 1 0 0-1.777z" fill="#828a9e"/><path d="m78.157 75.238-.257.262a.064.064 0 0 0 -.015.018.386.386 0 0 0 -.054.054.272.272 0 0 0 -.029.025c-2.156 2.153-4.011 3.359-5.842 3.254-3.827-.217-9.393-3.951-14.16-8.621-4.667-4.762-8.393-10.328-8.625-14.158-.091-1.79 1.08-3.62 3.167-5.729.033-.036.065-.069.1-.1l.362-.362c.544-.544 1.6-1.134 2.355-.377l5.49 5.479c.583.583.373 1.631-.482 2.45l-.315.315a4.917 4.917 0 0 0 -1.4 2c-.792 2.152 1.22 4.252 3.405 6.435s4.283 4.193 6.436 3.406a5.175 5.175 0 0 0 1.993-1.389v-.007s.025-.025.062-.058l.04-.04a.028.028 0 0 1 .015-.015c.087-.091.2-.2.2-.2a1.836 1.836 0 0 1 2.45-.482l5.486 5.483a1.822 1.822 0 0 1 -.382 2.357z" fill="#eeefee"/></g></svg>