<?xml version="1.0" encoding="iso-8859-1"?>
<!-- Generator: Adobe Illustrator 19.0.0, SVG Export Plug-In . SVG Version: 6.00 Build 0)  -->
<svg version="1.1" id="Capa_1" xmlns="http://www.w3.org/2000/svg" xmlns:xlink="http://www.w3.org/1999/xlink" x="0px" y="0px"
	 viewBox="0 0 512 512" style="enable-background:new 0 0 512 512;" xml:space="preserve">
<circle style="fill:#FDE180;" cx="87.671" cy="284.055" r="80.157"/>
<circle style="fill:#FCDA60;" cx="87.671" cy="284.055" r="56.11"/>
<circle style="fill:#FDE180;" cx="256" cy="91.679" r="80.157"/>
<circle style="fill:#FCDA60;" cx="256" cy="91.679" r="56.11"/>
<circle style="fill:#FDE180;" cx="424.329" cy="235.961" r="80.157"/>
<circle style="fill:#FCDA60;" cx="424.329" cy="235.961" r="56.11"/>
<rect x="95.687" y="404.29" style="fill:#76DCEB;" width="64.125" height="96.188"/>
<rect x="95.687" y="404.29" style="fill:#49D0E5;" width="24.047" height="96.188"/>
<rect x="408.297" y="404.29" style="fill:#76DCEB;" width="64.125" height="96.188"/>
<rect x="408.297" y="404.29" style="fill:#49D0E5;" width="24.047" height="96.188"/>
<rect x="199.89" y="308.102" style="fill:#76DCEB;" width="64.125" height="192.376"/>
<rect x="199.89" y="308.102" style="fill:#49D0E5;" width="24.047" height="192.376"/>
<rect x="304.094" y="356.196" style="fill:#76DCEB;" width="64.125" height="144.282"/>
<rect x="304.094" y="356.196" style="fill:#49D0E5;" width="24.047" height="144.282"/>
<path d="M95.186,240.184v-8.231c0-4.151-3.365-7.515-7.515-7.515c-4.15,0-7.515,3.364-7.515,7.515v8.591
	c-11.858,2.299-20.841,12.756-20.841,25.275c0,14.199,11.552,25.75,25.75,25.75h5.21c5.912,0,10.721,4.809,10.721,10.721
	c0,5.912-4.809,10.721-10.721,10.721h-7.815c-4.475,0-8.116-3.641-8.116-8.117c0-4.151-3.365-7.515-7.515-7.515
	c-4.15,0-7.515,3.364-7.515,7.515c0,11.984,9.156,21.87,20.841,23.03v8.231c0,4.151,3.365,7.515,7.515,7.515
	c4.15,0,7.515-3.364,7.515-7.515v-8.591c11.858-2.299,20.841-12.756,20.841-25.275c0-14.199-11.552-25.75-25.75-25.75h-5.21
	c-5.912,0-10.721-4.809-10.721-10.721c0-5.912,4.809-10.721,10.721-10.721h7.815c4.475,0,8.116,3.641,8.116,8.117v5.21
	c0,4.151,3.365,7.515,7.515,7.515s7.515-3.364,7.515-7.515v-5.21C116.027,251.23,106.87,241.344,95.186,240.184z"/>
<path d="M263.515,47.808v-8.231c0-4.151-3.364-7.515-7.515-7.515c-4.15,0-7.515,3.364-7.515,7.515v8.591
	c-11.858,2.299-20.841,12.756-20.841,25.275c0,14.199,11.552,25.75,25.75,25.75h5.21c5.912,0,10.721,4.809,10.721,10.721
	s-4.809,10.721-10.721,10.721h-7.815c-4.475,0-8.116-3.641-8.116-8.117c0-4.151-3.365-7.515-7.515-7.515s-7.515,3.364-7.515,7.515
	c0,11.984,9.156,21.87,20.841,23.03v8.231c0,4.151,3.365,7.515,7.515,7.515c4.151,0,7.515-3.364,7.515-7.515v-8.591
	c11.857-2.299,20.841-12.756,20.841-25.275c0-14.199-11.552-25.75-25.75-25.75h-5.21c-5.912,0-10.721-4.809-10.721-10.721
	c0-5.912,4.809-10.721,10.721-10.721h7.815c4.475,0,8.116,3.641,8.116,8.117v5.21c0,4.151,3.364,7.515,7.515,7.515
	c4.151,0,7.515-3.364,7.515-7.515v-5.21C284.355,58.854,275.199,48.969,263.515,47.808z"/>
<path d="M424.329,148.29c-21.722,0-41.622,7.945-56.954,21.076l-37.201-31.001c8.545-13.527,13.497-29.538,13.497-46.686
	c0-48.342-39.329-87.671-87.671-87.671s-87.671,39.329-87.671,87.671c0,25.365,10.831,48.243,28.107,64.267l-61.262,54.455
	c-13.697-8.864-30.009-14.017-47.503-14.017C39.329,196.384,0,235.712,0,284.055s39.329,87.671,87.671,87.671
	s87.671-39.329,87.671-87.671c0-25.365-10.831-48.243-28.107-64.266l61.262-54.455c13.697,8.864,30.009,14.017,47.503,14.017
	c25.798,0,49.027-11.203,65.084-28.996l35.713,29.76c-12.573,15.177-20.139,34.644-20.139,55.846
	c0,48.342,39.329,87.671,87.671,87.671S512,284.303,512,235.961S472.671,148.29,424.329,148.29z M160.313,284.055
	c0,40.055-32.587,72.642-72.642,72.642s-72.642-32.587-72.642-72.642s32.587-72.642,72.642-72.642S160.313,244,160.313,284.055z
	 M256,164.321c-40.055,0-72.642-32.587-72.642-72.642S215.945,19.037,256,19.037s72.642,32.587,72.642,72.642
	S296.055,164.321,256,164.321z M424.329,308.603c-40.055,0-72.642-32.587-72.642-72.642c0-18.9,7.26-36.133,19.132-49.068
	c1.195-0.44,2.298-1.182,3.173-2.231c0.565-0.678,0.982-1.43,1.272-2.213c12.935-11.869,30.166-19.129,49.065-19.129
	c40.055,0,72.642,32.587,72.642,72.642S464.384,308.603,424.329,308.603z"/>
<path d="M431.843,192.09v-8.231c0-4.151-3.364-7.515-7.515-7.515s-7.515,3.364-7.515,7.515v8.591
	c-11.857,2.299-20.841,12.756-20.841,25.275c0,14.199,11.552,25.75,25.75,25.75h5.209c5.912,0,10.721,4.809,10.721,10.721
	c0,5.912-4.809,10.721-10.721,10.721h-7.815c-4.475,0-8.116-3.641-8.116-8.117c0-4.151-3.364-7.515-7.515-7.515
	s-7.515,3.364-7.515,7.515c0,11.984,9.156,21.87,20.841,23.03v8.231c0,4.151,3.364,7.515,7.515,7.515s7.515-3.364,7.515-7.515
	v-8.591c11.857-2.299,20.841-12.756,20.841-25.275c0-14.199-11.552-25.75-25.75-25.75h-5.209c-5.912,0-10.721-4.809-10.721-10.721
	c0-5.912,4.809-10.721,10.721-10.721h7.815c4.475,0,8.116,3.641,8.116,8.117v5.21c0,4.151,3.364,7.515,7.515,7.515
	c4.151,0,7.515-3.364,7.515-7.515v-5.21C452.684,203.136,443.527,193.25,431.843,192.09z"/>
<path d="M159.812,396.775H95.687c-4.15,0-7.515,3.364-7.515,7.515v96.188c0,4.151,3.365,7.515,7.515,7.515h64.125
	c4.15,0,7.515-3.364,7.515-7.515V404.29C167.327,400.139,163.962,396.775,159.812,396.775z M152.297,492.963h-49.096v-81.159h49.096
	V492.963z"/>
<path d="M472.423,396.775h-64.125c-4.151,0-7.515,3.364-7.515,7.515v96.188c0,4.151,3.364,7.515,7.515,7.515h64.125
	c4.151,0,7.515-3.364,7.515-7.515V404.29C479.937,400.139,476.574,396.775,472.423,396.775z M464.908,492.963h-49.096v-81.159
	h49.096V492.963z"/>
<path d="M264.016,300.587H199.89c-4.15,0-7.515,3.364-7.515,7.515v192.376c0,4.151,3.365,7.515,7.515,7.515h64.125
	c4.151,0,7.515-3.364,7.515-7.515v-44.585c0-4.151-3.364-7.515-7.515-7.515s-7.515,3.364-7.515,7.515v37.07h-49.096V315.616h49.096
	v105.208c0,4.151,3.364,7.515,7.515,7.515s7.515-3.364,7.515-7.515V308.102C271.53,303.951,268.167,300.587,264.016,300.587z"/>
<path d="M368.219,348.681h-64.125c-4.151,0-7.515,3.364-7.515,7.515v144.282c0,4.151,3.364,7.515,7.515,7.515h64.125
	c4.151,0,7.515-3.364,7.515-7.515V356.196C375.734,352.045,372.37,348.681,368.219,348.681z M360.704,492.963h-49.096V363.71h49.096
	V492.963z"/>
<g>
</g>
<g>
</g>
<g>
</g>
<g>
</g>
<g>
</g>
<g>
</g>
<g>
</g>
<g>
</g>
<g>
</g>
<g>
</g>
<g>
</g>
<g>
</g>
<g>
</g>
<g>
</g>
<g>
</g>
</svg>
